<svg width="77" height="34" viewBox="0 0 77 34" fill="none" xmlns="http://www.w3.org/2000/svg">
<path d="M74.7995 17.5428C74.205 15.7213 72.5047 13.9728 70.1949 13.7891C67.3157 13.5627 64.7968 15.7087 64.5676 18.5844C64.5676 18.5844 64.2351 22.7733 69.3687 24.2048C69.613 24.2727 70.0815 24.4036 70.5047 24.1872C70.6407 24.1168 70.6886 24.0539 71.2327 23.4702C71.7365 22.9318 71.807 22.8664 71.9203 22.7934C72.3234 22.5343 72.7163 22.5293 72.8901 22.5041C72.8952 22.5041 72.9002 22.5016 72.9052 22.5016C72.9304 22.6047 72.9455 22.6928 72.9556 22.7683C72.9682 22.889 73.006 23.3394 73.2931 23.8048C73.4745 24.1017 73.6962 24.3029 73.8498 24.4237C73.8826 24.4489 73.9254 24.4438 73.9506 24.4136C74.2075 24.1142 74.6257 23.6966 75.2403 23.3494C75.9027 22.9746 76.5249 22.8312 76.9355 22.7733C76.9859 22.7657 77.0136 22.7154 76.9934 22.6701C76.2629 20.9619 75.5299 19.2536 74.7995 17.5453V17.5428ZM70.5022 20.7455C69.1218 21.2109 67.9329 19.9555 68.3762 18.6649C68.5626 18.1189 69.0387 17.7139 69.6054 17.6158C70.9531 17.3818 72.006 18.7504 71.3284 20.0411C71.1546 20.3706 70.8548 20.6273 70.4997 20.7455H70.5022Z" fill="#F0F0F0"/>
<path d="M63.8672 18.883C63.8017 16.6061 62.0888 14.6513 59.8394 14.279C59.0183 14.1431 58.2198 14.2186 57.4943 14.4626C57.7714 13.9519 58.0964 13.4135 58.4818 12.8525C59.1014 11.9543 59.7387 11.2021 60.3281 10.5882C60.3684 10.5479 60.3483 10.48 60.2954 10.4649C60.0082 10.3844 59.6153 10.2385 59.2072 9.95418C58.8268 9.69002 58.5649 9.40069 58.3961 9.17929C58.3734 9.1491 58.3306 9.14156 58.2979 9.16169C57.6505 9.59945 56.8369 10.2435 56.0359 11.1517C55.2097 12.0901 54.6656 13.0034 54.3155 13.7079C53.92 14.4978 53.8192 15.1972 53.7613 15.5017C53.721 15.7256 53.5799 16.5357 53.653 17.6125C53.7285 18.7069 53.993 19.6528 54.3029 20.4177C55.0434 22.38 56.7613 23.7311 58.6556 23.8493C61.3458 24.0179 63.9478 21.6781 63.8697 18.8805L63.8672 18.883ZM58.91 20.0403C57.7034 20.2088 56.7538 19.0968 57.1089 17.9345C57.2878 17.3483 57.8092 16.9055 58.4163 16.82C59.6228 16.6514 60.5725 17.7634 60.2173 18.9258C60.0384 19.5119 59.517 19.9547 58.91 20.0403Z" fill="#F0F0F0"/>
<path d="M34.0509 14.1832C33.2726 14.1178 32.7033 13.8285 32.4161 13.6574C31.9275 16.2865 30.9451 18.0224 30.066 19.1646C29.9199 19.0338 29.736 18.9055 29.5169 18.6841C28.9803 18.1432 28.5043 17.3205 28.3305 16.0198C28.3305 16.0147 28.3305 16.0097 28.3305 16.0072C28.3582 15.0587 28.3859 14.1102 28.4136 13.1592C28.4136 13.0989 28.3481 13.0611 28.2977 13.0938C27.9627 13.3127 27.4211 13.5995 26.7032 13.7379C25.9929 13.8763 25.3959 13.8134 25.0156 13.7429C24.9727 13.7354 24.935 13.763 24.9274 13.8058C24.9022 13.992 24.8695 14.2411 24.8418 14.5329C24.8418 14.5329 24.7284 15.7506 24.7989 16.8324C24.8946 18.2639 26.144 21.6427 27.6906 22.3321C27.5118 22.6038 27.3027 22.8755 27.0483 23.1372C26.1012 24.1133 25.0282 24.4907 24.4589 24.6416C24.3984 24.6567 24.3833 24.7322 24.4312 24.77C24.7687 25.0492 25.2649 25.5373 25.6453 26.2845C26.0105 27.0066 26.1138 27.6707 26.1415 28.0909C26.144 28.1437 26.202 28.1764 26.2498 28.1538C27.3078 27.633 28.537 26.9009 29.7864 25.8644C30.3481 25.3989 30.8418 24.931 31.2726 24.4781C31.2801 24.4706 31.2851 24.4605 31.2902 24.4504C32.6731 23.1975 33.8141 20.6112 34.2272 19.6728C35.2449 17.3632 35.5925 15.2902 35.726 13.9492C35.4137 14.0675 34.8142 14.2461 34.0509 14.1832Z" fill="#F0F0F0"/>
<path d="M19.6628 14.7849C17.8819 14.6139 16.0834 15.6177 15.101 17.336C14.7005 18.0027 14.3126 18.8456 14.0808 19.8519C13.8541 20.8432 13.8642 21.618 13.8693 21.8319C13.8768 22.1212 13.8693 22.7879 14.1186 23.5829C14.3403 24.2924 14.7131 25.2233 15.3428 26.2196C15.9524 27.1831 16.6124 27.9002 17.1489 28.4033C17.1791 28.431 17.2219 28.431 17.2496 28.4033C17.4386 28.2222 17.7257 27.9932 18.1136 27.8045C18.5318 27.6033 18.9172 27.5228 19.1968 27.4926C19.2522 27.485 19.2824 27.4247 19.2497 27.3769C18.7937 26.7177 18.3126 25.9277 17.8718 25.0019C17.5947 24.4232 17.3731 23.8723 17.1917 23.3565C17.7811 23.6634 18.4487 23.8496 19.1615 23.8723C20.9197 23.9301 22.5167 22.964 23.3429 21.4117C24.9172 18.4631 22.5923 15.0642 19.6628 14.7824V14.7849ZM20.3882 19.6028C20.5469 20.7375 19.4965 21.6331 18.4008 21.2985C17.8466 21.13 17.4285 20.6394 17.3504 20.0683C17.1917 18.9336 18.2421 18.038 19.3378 18.3726C19.892 18.5411 20.3101 19.0317 20.3907 19.6028H20.3882Z" fill="#F0F0F0"/>
<path d="M14.0833 9.6473C13.844 9.1869 12.5644 6.70625 10.0404 6.10496C6.29984 5.21686 2.31239 9.05607 1.07056 12.4978C1.00003 12.6915 0.944617 12.8676 0.904314 13.016C0.8892 13.0689 0.934541 13.1167 0.987439 13.1091C1.3552 13.0588 1.9144 13.0337 2.56428 13.1922C3.29225 13.3683 3.82122 13.7004 4.13357 13.9369C4.17891 13.9696 4.24188 13.9469 4.25448 13.8941C4.3376 13.4991 4.48874 13.0135 4.76582 12.5104C5.55424 11.0738 7.49381 9.25483 9.10592 9.8687C10.7155 10.4801 11.3805 12.6538 10.5946 14.7218C10.4661 15.0564 10.3074 15.3659 10.1261 15.6502C8.21171 14.0425 5.23434 14.0979 3.46606 15.9999C1.64739 17.9522 1.8741 21.024 3.71291 22.7776C5.85147 24.818 9.28477 23.5852 10.8263 22.3776C11.912 21.5272 12.6652 20.2089 13.0707 19.5019C13.373 18.9736 13.8188 18.1082 14.1538 17.0465C14.6072 15.6099 15.577 12.533 14.0883 9.64981L14.0833 9.6473ZM7.11093 20.6693C5.90437 20.8379 4.95474 19.7259 5.30991 18.5635C5.48875 17.9773 6.01017 17.5345 6.61723 17.449C7.82379 17.2804 8.77342 18.3924 8.41825 19.5548C8.23941 20.141 7.71799 20.5838 7.11093 20.6693Z" fill="#F0F0F0"/>
<path d="M42.9628 0.0117601H42.9477C42.5371 -0.0612 42.1467 0.213029 42.0761 0.620599L40.6202 8.98585C40.6202 8.98585 40.6152 8.9934 40.6126 8.9934L40.4338 9.00598C40.3179 9.01353 40.2146 8.93805 40.1869 8.82484L40.0434 8.2638C39.9854 8.03486 39.9905 7.79082 40.0811 7.57194C40.3154 7.00838 40.3104 6.16305 40.0207 5.29508C39.5673 3.93903 38.5849 3.04338 37.8267 3.29748C37.0685 3.55158 36.8217 4.8548 37.2751 6.21085C37.6076 7.20713 38.2272 7.95435 38.8343 8.17826C38.9073 8.20594 38.9653 8.26129 38.9829 8.33676L39.1013 8.80471C39.1391 8.95063 39.0333 9.09403 38.8847 9.1041L38.6479 9.1192C38.396 9.13429 38.1466 9.05881 37.9451 8.90786L32.5395 4.79694C32.2095 4.54535 31.736 4.60825 31.4841 4.94034L31.474 4.95292C31.2221 5.2825 31.2851 5.75548 31.6176 6.00707L35.7713 9.16699C37.3985 10.4048 38.4061 12.2867 38.537 14.3245L38.7663 17.9021C38.8242 18.8128 38.6202 19.7185 38.1743 20.5161L32.3078 31.0324C32.0911 31.4223 32.1516 31.9305 32.4967 32.2098C32.945 32.5721 33.5874 32.4337 33.8544 31.9532L40.4187 20.1865C40.4665 20.0984 40.5572 20.0431 40.658 20.0355L40.7537 20.0305C40.8167 20.0255 40.8696 20.0733 40.8721 20.1362L41.3759 32.645C41.3935 33.0904 41.7109 33.4929 42.1517 33.5508C42.7235 33.6262 43.1996 33.1734 43.1769 32.6249L42.6656 19.9097H42.6832L42.1567 11.6703C42.0761 10.3973 42.1441 9.11668 42.3633 7.85874L43.5774 0.889798C43.6479 0.479712 43.3734 0.0897516 42.9653 0.0193074L42.9628 0.0117601Z" fill="#F0F0F0"/>
<path d="M46.0182 0.0117601H46.0334C46.4439 -0.0612 46.8344 0.213029 46.9049 0.620599L48.3608 8.98585C48.3608 8.98585 48.3659 8.9934 48.3684 8.9934L48.5472 9.00598C48.6631 9.01353 48.7664 8.93805 48.7941 8.82484L48.9377 8.2638C48.9956 8.03486 48.9906 7.79082 48.8999 7.57194C48.6656 7.00838 48.6707 6.16305 48.9603 5.29508C49.4137 3.93903 50.3961 3.04338 51.1543 3.29748C51.9125 3.55158 52.1594 4.8548 51.706 6.21085C51.3735 7.20713 50.7538 7.95435 50.1468 8.17826C50.0737 8.20594 50.0158 8.26129 49.9981 8.33676L49.8798 8.80471C49.842 8.95063 49.9478 9.09403 50.0964 9.1041L50.3332 9.1192C50.585 9.13429 50.8344 9.05881 51.0359 8.90786L56.4415 4.79694C56.7715 4.54535 57.2451 4.60825 57.497 4.94034L57.507 4.95292C57.7589 5.2825 57.696 5.75548 57.3635 6.00707L53.2098 9.16699C51.5825 10.4048 50.575 12.2867 50.444 14.3245L50.2148 17.9021C50.1568 18.8128 50.3609 19.7185 50.8067 20.5161L56.6733 31.0324C56.8899 31.4223 56.8294 31.9305 56.4844 32.2098C56.036 32.5721 55.3937 32.4337 55.1267 31.9532L48.5624 20.1865C48.5145 20.0984 48.4238 20.0431 48.3231 20.0355L48.2273 20.0305C48.1644 20.0255 48.1115 20.0733 48.1089 20.1362L47.6052 32.645C47.5875 33.0904 47.2701 33.4929 46.8293 33.5508C46.2575 33.6262 45.7815 33.1734 45.8041 32.6249L46.3155 19.9097H46.2978L46.8243 11.6703C46.9049 10.3973 46.8369 9.11668 46.6177 7.85874L45.4036 0.889798C45.3331 0.479712 45.6077 0.0897516 46.0157 0.0193074L46.0182 0.0117601Z" fill="#F0F0F0"/>
</svg>
