<svg width="162" height="74" viewBox="0 0 162 74" fill="none" xmlns="http://www.w3.org/2000/svg">
<path d="M157.315 38.2507C156.05 34.279 152.43 30.4664 147.513 30.066C141.384 29.5722 136.021 34.2516 135.533 40.5218C135.533 40.5218 134.826 49.6556 145.754 52.777C146.274 52.9252 147.272 53.2104 148.172 52.7386C148.462 52.585 148.564 52.4479 149.722 51.1752C150.795 50.0012 150.945 49.8586 151.186 49.6995C152.044 49.1345 152.881 49.1235 153.251 49.0687C153.261 49.0687 153.272 49.0632 153.283 49.0632C153.336 49.2881 153.369 49.4801 153.39 49.6447C153.417 49.908 153.497 50.8899 154.109 51.9048C154.495 52.5521 154.967 52.991 155.294 53.2543C155.363 53.3092 155.455 53.2982 155.508 53.2324C156.055 52.5795 156.945 51.6689 158.254 50.9119C159.664 50.0945 160.988 49.7818 161.863 49.6556C161.97 49.6392 162.029 49.5295 161.986 49.4307C160.431 45.7059 158.87 41.981 157.315 38.2562V38.2507ZM148.167 45.2341C145.229 46.249 142.698 43.5116 143.641 40.6974C144.038 39.507 145.052 38.6237 146.258 38.4098C149.127 37.8996 151.368 40.8839 149.926 43.6981C149.556 44.4167 148.918 44.9763 148.162 45.2341H148.167Z" fill="#FBFBFB"/>
<path d="M157.315 38.2507C156.05 34.279 152.43 30.4664 147.513 30.066C141.384 29.5722 136.021 34.2516 135.533 40.5218C135.533 40.5218 134.826 49.6556 145.754 52.777C146.274 52.9252 147.272 53.2104 148.172 52.7386C148.462 52.585 148.564 52.4479 149.722 51.1752C150.795 50.0012 150.945 49.8586 151.186 49.6995C152.044 49.1345 152.881 49.1235 153.251 49.0687C153.261 49.0687 153.272 49.0632 153.283 49.0632C153.336 49.2881 153.369 49.4801 153.39 49.6447C153.417 49.908 153.497 50.8899 154.109 51.9048C154.495 52.5521 154.967 52.991 155.294 53.2543C155.363 53.3092 155.455 53.2982 155.508 53.2324C156.055 52.5795 156.945 51.6689 158.254 50.9119C159.664 50.0945 160.988 49.7818 161.863 49.6556C161.97 49.6392 162.029 49.5295 161.986 49.4307C160.431 45.7059 158.87 41.981 157.315 38.2562V38.2507ZM148.167 45.2341C145.229 46.249 142.698 43.5116 143.641 40.6974C144.038 39.507 145.052 38.6237 146.258 38.4098C149.127 37.8996 151.368 40.8839 149.926 43.6981C149.556 44.4167 148.918 44.9763 148.162 45.2341H148.167Z" fill="#8100FF"/>
<path d="M134.043 41.1742C133.904 36.2095 130.257 31.9471 125.469 31.1352C123.721 30.839 122.021 31.0035 120.476 31.5356C121.066 30.422 121.758 29.2481 122.578 28.0248C123.898 26.0663 125.254 24.4261 126.509 23.0876C126.595 22.9998 126.552 22.8517 126.439 22.8188C125.828 22.6432 124.991 22.325 124.123 21.7051C123.313 21.1291 122.755 20.4983 122.396 20.0155C122.348 19.9497 122.257 19.9332 122.187 19.9771C120.809 20.9317 119.077 22.336 117.372 24.3164C115.613 26.3626 114.455 28.3539 113.709 29.8899C112.867 31.6124 112.653 33.1375 112.529 33.8013C112.444 34.2895 112.143 36.0559 112.299 38.4038C112.46 40.7901 113.023 42.8528 113.682 44.5205C115.259 48.7994 118.916 51.7452 122.948 52.0031C128.675 52.3706 134.215 47.2688 134.048 41.1687L134.043 41.1742ZM123.49 43.6976C120.921 44.0652 118.9 41.6404 119.656 39.106C120.037 37.8278 121.147 36.8623 122.439 36.6758C125.008 36.3083 127.029 38.733 126.273 41.2674C125.892 42.5456 124.782 43.5111 123.49 43.6976Z" fill="#FBFBFB"/>
<path d="M134.043 41.1742C133.904 36.2095 130.257 31.9471 125.469 31.1352C123.721 30.839 122.021 31.0035 120.476 31.5356C121.066 30.422 121.758 29.2481 122.578 28.0248C123.898 26.0663 125.254 24.4261 126.509 23.0876C126.595 22.9998 126.552 22.8517 126.439 22.8188C125.828 22.6432 124.991 22.325 124.123 21.7051C123.313 21.1291 122.755 20.4983 122.396 20.0155C122.348 19.9497 122.257 19.9332 122.187 19.9771C120.809 20.9317 119.077 22.336 117.372 24.3164C115.613 26.3626 114.455 28.3539 113.709 29.8899C112.867 31.6124 112.653 33.1375 112.529 33.8013C112.444 34.2895 112.143 36.0559 112.299 38.4038C112.46 40.7901 113.023 42.8528 113.682 44.5205C115.259 48.7994 118.916 51.7452 122.948 52.0031C128.675 52.3706 134.215 47.2688 134.048 41.1687L134.043 41.1742ZM123.49 43.6976C120.921 44.0652 118.9 41.6404 119.656 39.106C120.037 37.8278 121.147 36.8623 122.439 36.6758C125.008 36.3083 127.029 38.733 126.273 41.2674C125.892 42.5456 124.782 43.5111 123.49 43.6976Z" fill="#8100FF"/>
<path d="M70.5692 30.9269C68.9122 30.7843 67.7004 30.1534 67.0891 29.7804C66.0488 35.513 63.9575 39.2982 62.086 41.7887C61.775 41.5035 61.3835 41.2237 60.917 40.741C59.7748 39.5615 58.7614 37.7677 58.3914 34.9315C58.3914 34.9206 58.3914 34.9096 58.3914 34.9041C58.4503 32.836 58.5093 30.7678 58.5683 28.6942C58.5683 28.5626 58.4289 28.4803 58.3216 28.5516C57.6085 29.0288 56.4556 29.6542 54.9273 29.9559C53.4151 30.2576 52.1442 30.1205 51.3345 29.9669C51.2434 29.9504 51.1629 30.0108 51.1468 30.104C51.0932 30.51 51.0235 31.0531 50.9645 31.6894C50.9645 31.6894 50.7232 34.3445 50.8734 36.7034C51.0771 39.8248 53.7369 47.1922 57.0293 48.6953C56.6486 49.2878 56.2035 49.8803 55.6619 50.4508C53.6457 52.5793 51.3613 53.4021 50.1495 53.7313C50.0208 53.7642 49.9886 53.9288 50.0905 54.011C50.809 54.62 51.8654 55.6842 52.6751 57.3135C53.4526 58.8879 53.6725 60.3361 53.7315 61.2523C53.7369 61.3675 53.8602 61.4388 53.9621 61.3894C56.2143 60.2539 58.8311 58.6575 61.4908 56.3974C62.6866 55.3825 63.7376 54.3621 64.6546 53.3747C64.6706 53.3582 64.6814 53.3363 64.6921 53.3144C67.636 50.5824 70.0651 44.9431 70.9446 42.8969C73.111 37.8609 73.851 33.3407 74.1352 30.4167C73.4702 30.6746 72.194 31.0641 70.5692 30.9269Z" fill="#FBFBFB"/>
<path d="M70.5692 30.9269C68.9122 30.7843 67.7004 30.1534 67.0891 29.7804C66.0488 35.513 63.9575 39.2982 62.086 41.7887C61.775 41.5035 61.3835 41.2237 60.917 40.741C59.7748 39.5615 58.7614 37.7677 58.3914 34.9315C58.3914 34.9206 58.3914 34.9096 58.3914 34.9041C58.4503 32.836 58.5093 30.7678 58.5683 28.6942C58.5683 28.5626 58.4289 28.4803 58.3216 28.5516C57.6085 29.0288 56.4556 29.6542 54.9273 29.9559C53.4151 30.2576 52.1442 30.1205 51.3345 29.9669C51.2434 29.9504 51.1629 30.0108 51.1468 30.104C51.0932 30.51 51.0235 31.0531 50.9645 31.6894C50.9645 31.6894 50.7232 34.3445 50.8734 36.7034C51.0771 39.8248 53.7369 47.1922 57.0293 48.6953C56.6486 49.2878 56.2035 49.8803 55.6619 50.4508C53.6457 52.5793 51.3613 53.4021 50.1495 53.7313C50.0208 53.7642 49.9886 53.9288 50.0905 54.011C50.809 54.62 51.8654 55.6842 52.6751 57.3135C53.4526 58.8879 53.6725 60.3361 53.7315 61.2523C53.7369 61.3675 53.8602 61.4388 53.9621 61.3894C56.2143 60.2539 58.8311 58.6575 61.4908 56.3974C62.6866 55.3825 63.7376 54.3621 64.6546 53.3747C64.6706 53.3582 64.6814 53.3363 64.6921 53.3144C67.636 50.5824 70.0651 44.9431 70.9446 42.8969C73.111 37.8609 73.851 33.3407 74.1352 30.4167C73.4702 30.6746 72.194 31.0641 70.5692 30.9269Z" fill="#8100FF"/>
<path d="M39.9398 32.2384C36.1486 31.8654 32.3199 34.0542 30.2286 37.801C29.376 39.2547 28.5502 41.0924 28.0569 43.2868C27.5742 45.4481 27.5957 47.1378 27.6064 47.6041C27.6225 48.2349 27.6064 49.6886 28.1373 51.4221C28.6092 52.9691 29.4028 54.9989 30.7434 57.1712C32.0411 59.2723 33.446 60.8357 34.5882 61.9329C34.6525 61.9932 34.7437 61.9932 34.8027 61.9329C35.2048 61.5379 35.8161 61.0387 36.6419 60.6273C37.5321 60.1884 38.3525 60.0129 38.9477 59.947C39.0657 59.9306 39.1301 59.7989 39.0604 59.6947C38.0898 58.2574 37.0656 56.5349 36.1272 54.5161C35.5373 53.2544 35.0654 52.053 34.6793 50.9284C35.9341 51.5977 37.3551 52.0036 38.8727 52.053C42.6156 52.1792 46.0153 50.0726 47.7741 46.6879C51.1256 40.2586 46.1762 32.8473 39.9398 32.2329V32.2384ZM41.4841 42.7436C41.822 45.2177 39.5859 47.1707 37.2532 46.4411C36.0735 46.0735 35.1834 45.0038 35.0172 43.7585C34.6793 41.2844 36.9154 39.3315 39.248 40.0611C40.4277 40.4287 41.3179 41.4984 41.4895 42.7436H41.4841Z" fill="#FBFBFB"/>
<path d="M39.9398 32.2384C36.1486 31.8654 32.3199 34.0542 30.2286 37.801C29.376 39.2547 28.5502 41.0924 28.0569 43.2868C27.5742 45.4481 27.5957 47.1378 27.6064 47.6041C27.6225 48.2349 27.6064 49.6886 28.1373 51.4221C28.6092 52.9691 29.4028 54.9989 30.7434 57.1712C32.0411 59.2723 33.446 60.8357 34.5882 61.9329C34.6525 61.9932 34.7437 61.9932 34.8027 61.9329C35.2048 61.5379 35.8161 61.0387 36.6419 60.6273C37.5321 60.1884 38.3525 60.0129 38.9477 59.947C39.0657 59.9306 39.1301 59.7989 39.0604 59.6947C38.0898 58.2574 37.0656 56.5349 36.1272 54.5161C35.5373 53.2544 35.0654 52.053 34.6793 50.9284C35.9341 51.5977 37.3551 52.0036 38.8727 52.053C42.6156 52.1792 46.0153 50.0726 47.7741 46.6879C51.1256 40.2586 46.1762 32.8473 39.9398 32.2329V32.2384ZM41.4841 42.7436C41.822 45.2177 39.5859 47.1707 37.2532 46.4411C36.0735 46.0735 35.1834 45.0038 35.0172 43.7585C34.6793 41.2844 36.9154 39.3315 39.248 40.0611C40.4277 40.4287 41.3179 41.4984 41.4895 42.7436H41.4841Z" fill="#8100FF"/>
<path d="M28.062 21.036C27.5526 20.0321 24.8285 14.6231 19.4554 13.312C11.4924 11.3755 3.00382 19.7468 0.360189 27.2514C0.210043 27.6738 0.0920701 28.0578 0.00627282 28.3814C-0.0259012 28.4966 0.0706218 28.6009 0.183231 28.5844C0.966131 28.4747 2.15657 28.4198 3.54005 28.7654C5.08976 29.1494 6.21585 29.8736 6.88078 30.3892C6.9773 30.4605 7.11136 30.4112 7.13817 30.296C7.31513 29.4347 7.63687 28.3759 8.22673 27.2788C9.90514 24.1464 14.0341 20.1802 17.466 21.5187C20.8926 22.8518 22.3082 27.5915 20.6352 32.1008C20.3617 32.8304 20.0239 33.5051 19.6378 34.125C15.5624 30.6196 9.22412 30.7403 5.45976 34.8875C1.58816 39.1445 2.07077 45.8426 5.98527 49.6662C10.5379 54.1152 17.8468 51.4271 21.1285 48.794C23.4397 46.9398 25.043 44.0652 25.9063 42.5237C26.5498 41.3717 27.4989 39.4846 28.2121 37.1696C29.1774 34.0373 31.2419 27.3282 28.0727 21.0415L28.062 21.036ZM13.2191 45.0691C10.6505 45.4367 8.6289 43.012 9.38499 40.4775C9.76571 39.1994 10.8757 38.2339 12.168 38.0473C14.7366 37.6798 16.7582 40.1045 16.0021 42.6389C15.6214 43.9171 14.5114 44.8826 13.2191 45.0691Z" fill="#FBFBFB"/>
<path d="M28.062 21.036C27.5526 20.0321 24.8285 14.6231 19.4554 13.312C11.4924 11.3755 3.00382 19.7468 0.360189 27.2514C0.210043 27.6738 0.0920701 28.0578 0.00627282 28.3814C-0.0259012 28.4966 0.0706218 28.6009 0.183231 28.5844C0.966131 28.4747 2.15657 28.4198 3.54005 28.7654C5.08976 29.1494 6.21585 29.8736 6.88078 30.3892C6.9773 30.4605 7.11136 30.4112 7.13817 30.296C7.31513 29.4347 7.63687 28.3759 8.22673 27.2788C9.90514 24.1464 14.0341 20.1802 17.466 21.5187C20.8926 22.8518 22.3082 27.5915 20.6352 32.1008C20.3617 32.8304 20.0239 33.5051 19.6378 34.125C15.5624 30.6196 9.22412 30.7403 5.45976 34.8875C1.58816 39.1445 2.07077 45.8426 5.98527 49.6662C10.5379 54.1152 17.8468 51.4271 21.1285 48.794C23.4397 46.9398 25.043 44.0652 25.9063 42.5237C26.5498 41.3717 27.4989 39.4846 28.2121 37.1696C29.1774 34.0373 31.2419 27.3282 28.0727 21.0415L28.062 21.036ZM13.2191 45.0691C10.6505 45.4367 8.6289 43.012 9.38499 40.4775C9.76571 39.1994 10.8757 38.2339 12.168 38.0473C14.7366 37.6798 16.7582 40.1045 16.0021 42.6389C15.6214 43.9171 14.5114 44.8826 13.2191 45.0691Z" fill="#8100FF"/>
<path d="M89.5413 0.0256426H89.5091C88.635 -0.133445 87.8039 0.464503 87.6537 1.3532L84.5543 19.5934C84.5543 19.5934 84.5436 19.6099 84.5382 19.6099L84.1575 19.6373C83.9108 19.6537 83.691 19.4892 83.632 19.2423L83.3263 18.019C83.203 17.5198 83.2137 16.9876 83.4068 16.5104C83.9055 15.2816 83.8947 13.4384 83.2781 11.5458C82.3129 8.58893 80.2215 6.63599 78.6075 7.19006C76.9934 7.74412 76.4679 10.5858 77.4331 13.5426C78.141 15.7149 79.4601 17.3442 80.7524 17.8325C80.9079 17.8928 81.0313 18.0135 81.0688 18.1781L81.3208 19.1984C81.4013 19.5166 81.176 19.8293 80.8597 19.8512L80.3556 19.8841C79.8194 19.9171 79.2885 19.7525 78.8595 19.4233L67.352 10.4596C66.6495 9.911 65.6414 10.0482 65.1051 10.7723L65.0837 10.7997C64.5475 11.5183 64.6815 12.5497 65.3893 13.0982L74.2318 19.9884C77.6959 22.6874 79.8408 26.7907 80.1197 31.2342L80.6076 39.035C80.731 41.0208 80.2966 42.9957 79.3475 44.7347L66.8586 67.6652C66.3975 68.5155 66.5262 69.6236 67.2608 70.2325C68.2153 71.0225 69.5827 70.7208 70.1511 69.673L84.1253 44.016C84.2272 43.824 84.4203 43.7033 84.6347 43.6869L84.8385 43.6759C84.9726 43.665 85.0852 43.7692 85.0905 43.9063L86.163 71.1816C86.2006 72.1525 86.8762 73.0303 87.8146 73.1564C89.0319 73.321 90.0453 72.3336 89.9971 71.1377L88.9085 43.4126H88.9461L87.8253 25.4467C87.6537 22.6709 87.7985 19.8786 88.265 17.1358L90.8497 1.94018C90.9998 1.046 90.4153 0.195701 89.5466 0.0420992L89.5413 0.0256426Z" fill="#FBFBFB"/>
<path d="M89.5413 0.0256426H89.5091C88.635 -0.133445 87.8039 0.464503 87.6537 1.3532L84.5543 19.5934C84.5543 19.5934 84.5436 19.6099 84.5382 19.6099L84.1575 19.6373C83.9108 19.6537 83.691 19.4892 83.632 19.2423L83.3263 18.019C83.203 17.5198 83.2137 16.9876 83.4068 16.5104C83.9055 15.2816 83.8947 13.4384 83.2781 11.5458C82.3129 8.58893 80.2215 6.63599 78.6075 7.19006C76.9934 7.74412 76.4679 10.5858 77.4331 13.5426C78.141 15.7149 79.4601 17.3442 80.7524 17.8325C80.9079 17.8928 81.0313 18.0135 81.0688 18.1781L81.3208 19.1984C81.4013 19.5166 81.176 19.8293 80.8597 19.8512L80.3556 19.8841C79.8194 19.9171 79.2885 19.7525 78.8595 19.4233L67.352 10.4596C66.6495 9.911 65.6414 10.0482 65.1051 10.7723L65.0837 10.7997C64.5475 11.5183 64.6815 12.5497 65.3893 13.0982L74.2318 19.9884C77.6959 22.6874 79.8408 26.7907 80.1197 31.2342L80.6076 39.035C80.731 41.0208 80.2966 42.9957 79.3475 44.7347L66.8586 67.6652C66.3975 68.5155 66.5262 69.6236 67.2608 70.2325C68.2153 71.0225 69.5827 70.7208 70.1511 69.673L84.1253 44.016C84.2272 43.824 84.4203 43.7033 84.6347 43.6869L84.8385 43.6759C84.9726 43.665 85.0852 43.7692 85.0905 43.9063L86.163 71.1816C86.2006 72.1525 86.8762 73.0303 87.8146 73.1564C89.0319 73.321 90.0453 72.3336 89.9971 71.1377L88.9085 43.4126H88.9461L87.8253 25.4467C87.6537 22.6709 87.7985 19.8786 88.265 17.1358L90.8497 1.94018C90.9998 1.046 90.4153 0.195701 89.5466 0.0420992L89.5413 0.0256426Z" fill="#8100FF"/>
<path d="M96.0456 0.0256426H96.0777C96.9518 -0.133445 97.7829 0.464503 97.9331 1.3532L101.033 19.5934C101.033 19.5934 101.043 19.6099 101.049 19.6099L101.429 19.6373C101.676 19.6537 101.896 19.4892 101.955 19.2423L102.26 18.019C102.384 17.5198 102.373 16.9876 102.18 16.5104C101.681 15.2816 101.692 13.4384 102.309 11.5458C103.274 8.58893 105.365 6.63599 106.979 7.19006C108.593 7.74412 109.119 10.5858 108.154 13.5426C107.446 15.7149 106.127 17.3442 104.834 17.8325C104.679 17.8928 104.556 18.0135 104.518 18.1781L104.266 19.1984C104.186 19.5166 104.411 19.8293 104.727 19.8512L105.231 19.8841C105.767 19.9171 106.298 19.7525 106.727 19.4233L118.235 10.4596C118.937 9.911 119.945 10.0482 120.482 10.7723L120.503 10.7997C121.039 11.5183 120.905 12.5497 120.197 13.0982L111.355 19.9884C107.891 22.6874 105.746 26.7907 105.467 31.2342L104.979 39.035C104.856 41.0208 105.29 42.9957 106.239 44.7347L118.728 67.6652C119.189 68.5155 119.061 69.6236 118.326 70.2325C117.372 71.0225 116.004 70.7208 115.436 69.673L101.462 44.016C101.36 43.824 101.167 43.7033 100.952 43.6869L100.748 43.6759C100.614 43.665 100.502 43.7692 100.496 43.9063L99.4238 71.1816C99.3863 72.1525 98.7106 73.0303 97.7722 73.1564C96.555 73.321 95.5415 72.3336 95.5898 71.1377L96.6783 43.4126H96.6408L97.7615 25.4467C97.9331 22.6709 97.7883 19.8786 97.3218 17.1358L94.7371 1.94018C94.587 1.046 95.1715 0.195701 96.0402 0.0420992L96.0456 0.0256426Z" fill="#FBFBFB"/>
<path d="M96.0456 0.0256426H96.0777C96.9518 -0.133445 97.7829 0.464503 97.9331 1.3532L101.033 19.5934C101.033 19.5934 101.043 19.6099 101.049 19.6099L101.429 19.6373C101.676 19.6537 101.896 19.4892 101.955 19.2423L102.26 18.019C102.384 17.5198 102.373 16.9876 102.18 16.5104C101.681 15.2816 101.692 13.4384 102.309 11.5458C103.274 8.58893 105.365 6.63599 106.979 7.19006C108.593 7.74412 109.119 10.5858 108.154 13.5426C107.446 15.7149 106.127 17.3442 104.834 17.8325C104.679 17.8928 104.556 18.0135 104.518 18.1781L104.266 19.1984C104.186 19.5166 104.411 19.8293 104.727 19.8512L105.231 19.8841C105.767 19.9171 106.298 19.7525 106.727 19.4233L118.235 10.4596C118.937 9.911 119.945 10.0482 120.482 10.7723L120.503 10.7997C121.039 11.5183 120.905 12.5497 120.197 13.0982L111.355 19.9884C107.891 22.6874 105.746 26.7907 105.467 31.2342L104.979 39.035C104.856 41.0208 105.29 42.9957 106.239 44.7347L118.728 67.6652C119.189 68.5155 119.061 69.6236 118.326 70.2325C117.372 71.0225 116.004 70.7208 115.436 69.673L101.462 44.016C101.36 43.824 101.167 43.7033 100.952 43.6869L100.748 43.6759C100.614 43.665 100.502 43.7692 100.496 43.9063L99.4238 71.1816C99.3863 72.1525 98.7106 73.0303 97.7722 73.1564C96.555 73.321 95.5415 72.3336 95.5898 71.1377L96.6783 43.4126H96.6408L97.7615 25.4467C97.9331 22.6709 97.7883 19.8786 97.3218 17.1358L94.7371 1.94018C94.587 1.046 95.1715 0.195701 96.0402 0.0420992L96.0456 0.0256426Z" fill="#8100FF"/>
</svg>
