<svg width="174" height="85" viewBox="0 0 174 85" fill="none" xmlns="http://www.w3.org/2000/svg">
<path d="M165.733 43.3847C164.202 38.6858 159.865 34.0075 153.721 33.5072L153.719 33.507C146.12 32.8949 139.568 38.6905 138.974 46.3226L138.974 46.3235L141.533 46.5218C138.974 46.3235 138.974 46.325 138.974 46.3266L138.973 46.33L138.973 46.3374L138.972 46.3548L138.969 46.3998C138.967 46.4343 138.965 46.4778 138.963 46.5298C138.959 46.6336 138.956 46.7718 138.957 46.9404C138.96 47.2769 138.979 47.7381 139.043 48.2919C139.171 49.395 139.477 50.8975 140.2 52.5222C141.687 55.8664 144.829 59.469 151.049 61.2455L151.051 61.2461C151.07 61.2515 151.092 61.2581 151.118 61.2656C151.639 61.419 153.527 61.9746 155.363 61.0129L155.363 61.0129L155.376 61.0065C155.552 60.9131 155.752 60.7927 155.971 60.6182C156.165 60.4641 156.329 60.3032 156.463 60.1652C156.649 59.9742 156.905 59.6921 157.254 59.3071C157.366 59.1837 157.487 59.0498 157.619 58.9049C157.642 58.8799 157.664 58.8554 157.686 58.8315C157.754 58.9616 157.827 59.0928 157.907 59.2245C158.5 60.2177 159.214 60.8759 159.684 61.2541L159.695 61.263L159.706 61.2717C160.858 62.1785 162.53 62.0188 163.481 60.8754C163.902 60.3733 164.57 59.6947 165.539 59.134L165.541 59.133C166.593 58.523 167.582 58.2899 168.229 58.1965L168.241 58.1949L168.252 58.1931C170.043 57.9182 171.031 56.0433 170.352 54.4345C169.576 52.5756 168.798 50.7168 168.021 48.8588L168.019 48.853C167.256 47.0296 166.494 45.2071 165.733 43.3847ZM153.62 47.2995C153.811 47.5669 153.916 47.9895 153.643 48.5246C153.568 48.6693 153.442 48.7673 153.333 48.8043L153.338 48.8333L153.329 48.8075C152.837 48.9773 152.506 48.8357 152.291 48.6141C152.053 48.3684 151.92 47.9772 152.075 47.5136L152.077 47.5092C152.183 47.1904 152.449 46.9832 152.706 46.9376L152.708 46.9374C153.105 46.8667 153.419 47.0187 153.62 47.2995Z" fill="#FBFBFB"/>
<path d="M165.733 43.3847C164.202 38.6858 159.865 34.0075 153.721 33.5072L153.719 33.507C146.12 32.8949 139.568 38.6905 138.974 46.3226L138.974 46.3235L141.533 46.5218C138.974 46.3235 138.974 46.325 138.974 46.3266L138.973 46.33L138.973 46.3374L138.972 46.3548L138.969 46.3998C138.967 46.4343 138.965 46.4778 138.963 46.5298C138.959 46.6336 138.956 46.7718 138.957 46.9404C138.96 47.2769 138.979 47.7381 139.043 48.2919C139.171 49.395 139.477 50.8975 140.2 52.5222C141.687 55.8664 144.829 59.469 151.049 61.2455L151.051 61.2461C151.07 61.2515 151.092 61.2581 151.118 61.2656C151.639 61.419 153.527 61.9746 155.363 61.0129L155.363 61.0129L155.376 61.0065C155.552 60.9131 155.752 60.7927 155.971 60.6182C156.165 60.4641 156.329 60.3032 156.463 60.1652C156.649 59.9742 156.905 59.6921 157.254 59.3071C157.366 59.1837 157.487 59.0498 157.619 58.9049C157.642 58.8799 157.664 58.8554 157.686 58.8315C157.754 58.9616 157.827 59.0928 157.907 59.2245C158.5 60.2177 159.214 60.8759 159.684 61.2541L159.695 61.263L159.706 61.2717C160.858 62.1785 162.53 62.0188 163.481 60.8754C163.902 60.3733 164.57 59.6947 165.539 59.134L165.541 59.133C166.593 58.523 167.582 58.2899 168.229 58.1965L168.241 58.1949L168.252 58.1931C170.043 57.9182 171.031 56.0433 170.352 54.4345C169.576 52.5756 168.798 50.7168 168.021 48.8588L168.019 48.853C167.256 47.0296 166.494 45.2071 165.733 43.3847ZM153.62 47.2995C153.811 47.5669 153.916 47.9895 153.643 48.5246C153.568 48.6693 153.442 48.7673 153.333 48.8043L153.338 48.8333L153.329 48.8075C152.837 48.9773 152.506 48.8357 152.291 48.6141C152.053 48.3684 151.92 47.9772 152.075 47.5136L152.077 47.5092C152.183 47.1904 152.449 46.9832 152.706 46.9376L152.708 46.9374C153.105 46.8667 153.419 47.0187 153.62 47.2995Z" fill="#8100FF"/>
<path d="M165.733 43.3847C164.202 38.6858 159.865 34.0075 153.721 33.5072L153.719 33.507C146.12 32.8949 139.568 38.6905 138.974 46.3226L138.974 46.3235L141.533 46.5218C138.974 46.3235 138.974 46.325 138.974 46.3266L138.973 46.33L138.973 46.3374L138.972 46.3548L138.969 46.3998C138.967 46.4343 138.965 46.4778 138.963 46.5298C138.959 46.6336 138.956 46.7718 138.957 46.9404C138.96 47.2769 138.979 47.7381 139.043 48.2919C139.171 49.395 139.477 50.8975 140.2 52.5222C141.687 55.8664 144.829 59.469 151.049 61.2455L151.051 61.2461C151.07 61.2515 151.092 61.2581 151.118 61.2656C151.639 61.419 153.527 61.9746 155.363 61.0129L155.363 61.0129L155.376 61.0065C155.552 60.9131 155.752 60.7927 155.971 60.6182C156.165 60.4641 156.329 60.3032 156.463 60.1652C156.649 59.9742 156.905 59.6921 157.254 59.3071C157.366 59.1837 157.487 59.0498 157.619 58.9049C157.642 58.8799 157.664 58.8554 157.686 58.8315C157.754 58.9616 157.827 59.0928 157.907 59.2245C158.5 60.2177 159.214 60.8759 159.684 61.2541L159.695 61.263L159.706 61.2717C160.858 62.1785 162.53 62.0188 163.481 60.8754C163.902 60.3733 164.57 59.6947 165.539 59.134L165.541 59.133C166.593 58.523 167.582 58.2899 168.229 58.1965L168.241 58.1949L168.252 58.1931C170.043 57.9182 171.031 56.0433 170.352 54.4345C169.576 52.5756 168.798 50.7168 168.021 48.8588L168.019 48.853C167.256 47.0296 166.494 45.2071 165.733 43.3847ZM153.62 47.2995C153.811 47.5669 153.916 47.9895 153.643 48.5246C153.568 48.6693 153.442 48.7673 153.333 48.8043L153.338 48.8333L153.329 48.8075C152.837 48.9773 152.506 48.8357 152.291 48.6141C152.053 48.3684 151.92 47.9772 152.075 47.5136L152.077 47.5092C152.183 47.1904 152.449 46.9832 152.706 46.9376L152.708 46.9374C153.105 46.8667 153.419 47.0187 153.62 47.2995Z" stroke="#F0F0F0" stroke-width="5.13442"/>
<path d="M134.372 30.8536C135.811 29.3419 135.071 26.9134 133.16 26.3546L133.16 26.3546L133.148 26.3513C132.733 26.2322 132.183 26.0218 131.614 25.6154L131.611 25.6132C131.071 25.2289 130.698 24.8077 130.458 24.4857C129.59 23.3152 127.995 23.0642 126.819 23.8046L126.772 23.8346L126.725 23.8667C125.206 24.9189 123.301 26.4642 121.426 28.6413L121.425 28.6429C119.494 30.8891 118.222 33.0756 117.401 34.766C116.473 36.666 116.171 38.3898 116.04 39.1391C116.027 39.2133 116.016 39.278 116.005 39.3323L116.003 39.3446L116.001 39.3569C115.899 39.9364 115.562 41.9319 115.737 44.5735L115.737 44.5765C115.918 47.253 116.547 49.5665 117.284 51.4369C119.162 56.5036 123.597 60.2331 128.784 60.565C136.002 61.0282 142.823 54.7246 142.615 47.0987L142.449 41.0273L141.442 42.0608C139.705 38.233 136.187 35.3314 131.898 34.6041L131.898 34.6041C131.718 34.5735 131.538 34.5469 131.358 34.5242C132.38 33.1027 133.409 31.8819 134.372 30.8536ZM130.636 27.3318C130.634 27.3343 130.631 27.3367 130.629 27.3392C130.633 27.3349 130.637 27.3307 130.641 27.3265L130.636 27.3318Z" fill="#FBFBFB"/>
<path d="M134.372 30.8536C135.811 29.3419 135.071 26.9134 133.16 26.3546L133.16 26.3546L133.148 26.3513C132.733 26.2322 132.183 26.0218 131.614 25.6154L131.611 25.6132C131.071 25.2289 130.698 24.8077 130.458 24.4857C129.59 23.3152 127.995 23.0642 126.819 23.8046L126.772 23.8346L126.725 23.8667C125.206 24.9189 123.301 26.4642 121.426 28.6413L121.425 28.6429C119.494 30.8891 118.222 33.0756 117.401 34.766C116.473 36.666 116.171 38.3898 116.04 39.1391C116.027 39.2133 116.016 39.278 116.005 39.3323L116.003 39.3446L116.001 39.3569C115.899 39.9364 115.562 41.9319 115.737 44.5735L115.737 44.5765C115.918 47.253 116.547 49.5665 117.284 51.4369C119.162 56.5036 123.597 60.2331 128.784 60.565C136.002 61.0282 142.823 54.7246 142.615 47.0987L142.449 41.0273L141.442 42.0608C139.705 38.233 136.187 35.3314 131.898 34.6041L131.898 34.6041C131.718 34.5735 131.538 34.5469 131.358 34.5242C132.38 33.1027 133.409 31.8819 134.372 30.8536ZM130.636 27.3318C130.634 27.3343 130.631 27.3367 130.629 27.3392C130.633 27.3349 130.637 27.3307 130.641 27.3265L130.636 27.3318Z" fill="#8100FF"/>
<path d="M134.372 30.8536C135.811 29.3419 135.071 26.9134 133.16 26.3546L133.16 26.3546L133.148 26.3513C132.733 26.2322 132.183 26.0218 131.614 25.6154L131.611 25.6132C131.071 25.2289 130.698 24.8077 130.458 24.4857C129.59 23.3152 127.995 23.0642 126.819 23.8046L126.772 23.8346L126.725 23.8667C125.206 24.9189 123.301 26.4642 121.426 28.6413L121.425 28.6429C119.494 30.8891 118.222 33.0756 117.401 34.766C116.473 36.666 116.171 38.3898 116.04 39.1391C116.027 39.2133 116.016 39.278 116.005 39.3323L116.003 39.3446L116.001 39.3569C115.899 39.9364 115.562 41.9319 115.737 44.5735L115.737 44.5765C115.918 47.253 116.547 49.5665 117.284 51.4369C119.162 56.5036 123.597 60.2331 128.784 60.565C136.002 61.0282 142.823 54.7246 142.615 47.0987L142.449 41.0273L141.442 42.0608C139.705 38.233 136.187 35.3314 131.898 34.6041L131.898 34.6041C131.718 34.5735 131.538 34.5469 131.358 34.5242C132.38 33.1027 133.409 31.8819 134.372 30.8536ZM130.636 27.3318C130.634 27.3343 130.631 27.3367 130.629 27.3392C130.633 27.3349 130.637 27.3307 130.641 27.3265L130.636 27.3318Z" stroke="#F0F0F0" stroke-width="5.13442"/>
<path d="M70.5631 35.322C69.9293 38.8145 68.8835 41.4897 67.771 43.5379C67.4273 42.8492 67.1328 41.9572 66.9629 40.7877C67.0201 38.7828 67.0773 36.7776 67.1345 34.7672L67.1355 34.7307V34.6942C67.1355 32.7734 64.926 31.0667 62.9001 32.4139L62.9001 32.4139L62.8939 32.418C62.3772 32.7638 61.5381 33.2186 60.4301 33.4373L60.4301 33.4373L60.425 33.4384C59.333 33.6562 58.4118 33.5583 57.813 33.4447L57.8018 33.4426L57.7906 33.4405C56.1822 33.1502 54.8552 34.2867 54.617 35.6677L54.6084 35.7176L54.6017 35.7679C54.5469 36.1834 54.4719 36.7658 54.4083 37.4525L54.4083 37.4525L54.4079 37.4571L56.9645 37.6895C54.4079 37.4571 54.4078 37.4573 54.4078 37.4575L54.4078 37.4579L54.4077 37.4589L54.4074 37.4618L54.4067 37.4703L54.4042 37.4988L54.3958 37.5992C54.3888 37.6848 54.3792 37.8068 54.3684 37.9595C54.3468 38.2644 54.3198 38.6939 54.2978 39.2007C54.2544 40.202 54.228 41.5574 54.3113 42.8665L54.3116 42.8707C54.4404 44.8429 55.2762 47.7778 56.4567 50.3702C57.0592 51.6933 57.796 53.0276 58.6558 54.1701C58.8852 54.4749 59.1343 54.7808 59.4036 55.0773C57.941 56.4445 56.3704 57.01 55.4865 57.2511C53.2619 57.8413 52.8179 60.6197 54.4398 61.9773C54.9788 62.4354 55.7679 63.2334 56.3747 64.4532C56.9568 65.633 57.1238 66.7207 57.1689 67.4068C57.2841 69.3679 59.3553 70.5362 61.0816 69.6997L61.0998 69.6908L61.1179 69.6817C63.5201 68.4705 66.3132 66.7668 69.1519 64.3547C70.4261 63.2733 71.548 62.1847 72.5288 61.1291C72.5656 61.0898 72.5997 61.051 72.6313 61.0133C74.3367 59.3621 75.7733 57.0622 76.8508 55.0695C77.9952 52.9528 78.861 50.9393 79.3028 49.9114C81.6048 44.5603 82.3893 39.7625 82.6903 36.6651L83.0936 32.5161L79.207 34.0232C78.7607 34.1963 77.8918 34.4618 76.7872 34.369C75.6702 34.2724 74.8471 33.8457 74.4263 33.589L71.2314 31.6394L70.5631 35.322ZM56.8223 62.2087C56.8272 62.2074 56.832 62.2061 56.8369 62.2048C56.8295 62.2068 56.8221 62.2088 56.8147 62.2108L56.8223 62.2087ZM62.2934 67.0873C62.2933 67.0864 62.2933 67.0855 62.2932 67.0846L62.2934 67.0873Z" fill="#FBFBFB"/>
<path d="M70.5631 35.322C69.9293 38.8145 68.8835 41.4897 67.771 43.5379C67.4273 42.8492 67.1328 41.9572 66.9629 40.7877C67.0201 38.7828 67.0773 36.7776 67.1345 34.7672L67.1355 34.7307V34.6942C67.1355 32.7734 64.926 31.0667 62.9001 32.4139L62.9001 32.4139L62.8939 32.418C62.3772 32.7638 61.5381 33.2186 60.4301 33.4373L60.4301 33.4373L60.425 33.4384C59.333 33.6562 58.4118 33.5583 57.813 33.4447L57.8018 33.4426L57.7906 33.4405C56.1822 33.1502 54.8552 34.2867 54.617 35.6677L54.6084 35.7176L54.6017 35.7679C54.5469 36.1834 54.4719 36.7658 54.4083 37.4525L54.4083 37.4525L54.4079 37.4571L56.9645 37.6895C54.4079 37.4571 54.4078 37.4573 54.4078 37.4575L54.4078 37.4579L54.4077 37.4589L54.4074 37.4618L54.4067 37.4703L54.4042 37.4988L54.3958 37.5992C54.3888 37.6848 54.3792 37.8068 54.3684 37.9595C54.3468 38.2644 54.3198 38.6939 54.2978 39.2007C54.2544 40.202 54.228 41.5574 54.3113 42.8665L54.3116 42.8707C54.4404 44.8429 55.2762 47.7778 56.4567 50.3702C57.0592 51.6933 57.796 53.0276 58.6558 54.1701C58.8852 54.4749 59.1343 54.7808 59.4036 55.0773C57.941 56.4445 56.3704 57.01 55.4865 57.2511C53.2619 57.8413 52.8179 60.6197 54.4398 61.9773C54.9788 62.4354 55.7679 63.2334 56.3747 64.4532C56.9568 65.633 57.1238 66.7207 57.1689 67.4068C57.2841 69.3679 59.3553 70.5362 61.0816 69.6997L61.0998 69.6908L61.1179 69.6817C63.5201 68.4705 66.3132 66.7668 69.1519 64.3547C70.4261 63.2733 71.548 62.1847 72.5288 61.1291C72.5656 61.0898 72.5997 61.051 72.6313 61.0133C74.3367 59.3621 75.7733 57.0622 76.8508 55.0695C77.9952 52.9528 78.861 50.9393 79.3028 49.9114C81.6048 44.5603 82.3893 39.7625 82.6903 36.6651L83.0936 32.5161L79.207 34.0232C78.7607 34.1963 77.8918 34.4618 76.7872 34.369C75.6702 34.2724 74.8471 33.8457 74.4263 33.589L71.2314 31.6394L70.5631 35.322ZM56.8223 62.2087C56.8272 62.2074 56.832 62.2061 56.8369 62.2048C56.8295 62.2068 56.8221 62.2088 56.8147 62.2108L56.8223 62.2087ZM62.2934 67.0873C62.2933 67.0864 62.2933 67.0855 62.2932 67.0846L62.2934 67.0873Z" fill="#8100FF"/>
<path d="M70.5631 35.322C69.9293 38.8145 68.8835 41.4897 67.771 43.5379C67.4273 42.8492 67.1328 41.9572 66.9629 40.7877C67.0201 38.7828 67.0773 36.7776 67.1345 34.7672L67.1355 34.7307V34.6942C67.1355 32.7734 64.926 31.0667 62.9001 32.4139L62.9001 32.4139L62.8939 32.418C62.3772 32.7638 61.5381 33.2186 60.4301 33.4373L60.4301 33.4373L60.425 33.4384C59.333 33.6562 58.4118 33.5583 57.813 33.4447L57.8018 33.4426L57.7906 33.4405C56.1822 33.1502 54.8552 34.2867 54.617 35.6677L54.6084 35.7176L54.6017 35.7679C54.5469 36.1834 54.4719 36.7658 54.4083 37.4525L54.4083 37.4525L54.4079 37.4571L56.9645 37.6895C54.4079 37.4571 54.4078 37.4573 54.4078 37.4575L54.4078 37.4579L54.4077 37.4589L54.4074 37.4618L54.4067 37.4703L54.4042 37.4988L54.3958 37.5992C54.3888 37.6848 54.3792 37.8068 54.3684 37.9595C54.3468 38.2644 54.3198 38.6939 54.2978 39.2007C54.2544 40.202 54.228 41.5574 54.3113 42.8665L54.3116 42.8707C54.4404 44.8429 55.2762 47.7778 56.4567 50.3702C57.0592 51.6933 57.796 53.0276 58.6558 54.1701C58.8852 54.4749 59.1343 54.7808 59.4036 55.0773C57.941 56.4445 56.3704 57.01 55.4865 57.2511C53.2619 57.8413 52.8179 60.6197 54.4398 61.9773C54.9788 62.4354 55.7679 63.2334 56.3747 64.4532C56.9568 65.633 57.1238 66.7207 57.1689 67.4068C57.2841 69.3679 59.3553 70.5362 61.0816 69.6997L61.0998 69.6908L61.1179 69.6817C63.5201 68.4705 66.3132 66.7668 69.1519 64.3547C70.4261 63.2733 71.548 62.1847 72.5288 61.1291C72.5656 61.0898 72.5997 61.051 72.6313 61.0133C74.3367 59.3621 75.7733 57.0622 76.8508 55.0695C77.9952 52.9528 78.861 50.9393 79.3028 49.9114C81.6048 44.5603 82.3893 39.7625 82.6903 36.6651L83.0936 32.5161L79.207 34.0232C78.7607 34.1963 77.8918 34.4618 76.7872 34.369C75.6702 34.2724 74.8471 33.8457 74.4263 33.589L71.2314 31.6394L70.5631 35.322ZM56.8223 62.2087C56.8272 62.2074 56.832 62.2061 56.8369 62.2048C56.8295 62.2068 56.8221 62.2088 56.8147 62.2108L56.8223 62.2087ZM62.2934 67.0873C62.2933 67.0864 62.2933 67.0855 62.2932 67.0846L62.2934 67.0873Z" stroke="#F0F0F0" stroke-width="5.13442"/>
<path d="M42.6095 69.7567C42.8593 69.5126 43.2512 69.1926 43.7821 68.9274C44.3525 68.6471 44.8712 68.5384 45.23 68.4987L45.2663 68.4947L45.3024 68.4896C47.2294 68.2208 48.3543 66.002 47.1943 64.2675L47.1943 64.2675L47.1879 64.258C46.4792 63.2085 45.7418 61.9992 45.0369 60.6246C49.7335 60.6856 53.9063 57.9999 56.0514 53.8731C58.19 49.7693 57.6475 45.3689 55.6686 41.9841C53.7154 38.6432 50.24 36.0769 46.1915 35.6781L43.3726 35.4004V35.7605C39.5044 36.3522 36.031 38.9041 34.0005 42.5254C33.0417 44.1648 32.1103 46.2411 31.5522 48.7236L31.5513 48.7273C31.0054 51.1725 31.0268 53.0925 31.0399 53.6631L31.04 53.6695C31.0412 53.7166 31.0422 53.7714 31.0433 53.8334C31.056 54.5487 31.0857 56.2238 31.6821 58.1721C32.2051 59.8864 33.0813 62.1254 34.5587 64.5194L34.5592 64.5203C35.9934 66.8424 37.5467 68.5711 38.8097 69.7843L38.8208 69.795L38.8321 69.8055C39.83 70.7413 41.5015 70.8585 42.6095 69.7567ZM44.4844 48.5121C44.6658 48.5687 44.8634 48.7615 44.9296 49.011L44.9405 49.091C44.9892 49.4474 44.8584 49.7055 44.681 49.8605C44.5075 50.0121 44.2863 50.0743 44.0196 49.9909L44.0169 49.9901C43.8147 49.9271 43.5991 49.6984 43.5618 49.4188L43.5618 49.4188L43.5608 49.4112C43.5121 49.0547 43.6429 48.7967 43.8203 48.6417C43.9938 48.4901 44.215 48.4279 44.4817 48.5113L44.4844 48.5121Z" fill="#FBFBFB"/>
<path d="M42.6095 69.7567C42.8593 69.5126 43.2512 69.1926 43.7821 68.9274C44.3525 68.6471 44.8712 68.5384 45.23 68.4987L45.2663 68.4947L45.3024 68.4896C47.2294 68.2208 48.3543 66.002 47.1943 64.2675L47.1943 64.2675L47.1879 64.258C46.4792 63.2085 45.7418 61.9992 45.0369 60.6246C49.7335 60.6856 53.9063 57.9999 56.0514 53.8731C58.19 49.7693 57.6475 45.3689 55.6686 41.9841C53.7154 38.6432 50.24 36.0769 46.1915 35.6781L43.3726 35.4004V35.7605C39.5044 36.3522 36.031 38.9041 34.0005 42.5254C33.0417 44.1648 32.1103 46.2411 31.5522 48.7236L31.5513 48.7273C31.0054 51.1725 31.0268 53.0925 31.0399 53.6631L31.04 53.6695C31.0412 53.7166 31.0422 53.7714 31.0433 53.8334C31.056 54.5487 31.0857 56.2238 31.6821 58.1721C32.2051 59.8864 33.0813 62.1254 34.5587 64.5194L34.5592 64.5203C35.9934 66.8424 37.5467 68.5711 38.8097 69.7843L38.8208 69.795L38.8321 69.8055C39.83 70.7413 41.5015 70.8585 42.6095 69.7567ZM44.4844 48.5121C44.6658 48.5687 44.8634 48.7615 44.9296 49.011L44.9405 49.091C44.9892 49.4474 44.8584 49.7055 44.681 49.8605C44.5075 50.0121 44.2863 50.0743 44.0196 49.9909L44.0169 49.9901C43.8147 49.9271 43.5991 49.6984 43.5618 49.4188L43.5618 49.4188L43.5608 49.4112C43.5121 49.0547 43.6429 48.7967 43.8203 48.6417C43.9938 48.4901 44.215 48.4279 44.4817 48.5113L44.4844 48.5121Z" fill="#8100FF"/>
<path d="M42.6095 69.7567C42.8593 69.5126 43.2512 69.1926 43.7821 68.9274C44.3525 68.6471 44.8712 68.5384 45.23 68.4987L45.2663 68.4947L45.3024 68.4896C47.2294 68.2208 48.3543 66.002 47.1943 64.2675L47.1943 64.2675L47.1879 64.258C46.4792 63.2085 45.7418 61.9992 45.0369 60.6246C49.7335 60.6856 53.9063 57.9999 56.0514 53.8731C58.19 49.7693 57.6475 45.3689 55.6686 41.9841C53.7154 38.6432 50.24 36.0769 46.1915 35.6781L43.3726 35.4004V35.7605C39.5044 36.3522 36.031 38.9041 34.0005 42.5254C33.0417 44.1648 32.1103 46.2411 31.5522 48.7236L31.5513 48.7273C31.0054 51.1725 31.0268 53.0925 31.0399 53.6631L31.04 53.6695C31.0412 53.7166 31.0422 53.7714 31.0433 53.8334C31.056 54.5487 31.0857 56.2238 31.6821 58.1721C32.2051 59.8864 33.0813 62.1254 34.5587 64.5194L34.5592 64.5203C35.9934 66.8424 37.5467 68.5711 38.8097 69.7843L38.8208 69.795L38.8321 69.8055C39.83 70.7413 41.5015 70.8585 42.6095 69.7567ZM44.4844 48.5121C44.6658 48.5687 44.8634 48.7615 44.9296 49.011L44.9405 49.091C44.9892 49.4474 44.8584 49.7055 44.681 49.8605C44.5075 50.0121 44.2863 50.0743 44.0196 49.9909L44.0169 49.9901C43.8147 49.9271 43.5991 49.6984 43.5618 49.4188L43.5618 49.4188L43.5608 49.4112C43.5121 49.0547 43.6429 48.7967 43.8203 48.6417C43.9938 48.4901 44.215 48.4279 44.4817 48.5113L44.4844 48.5121Z" stroke="#F0F0F0" stroke-width="5.13442"/>
<path d="M3.94 32.395C5.42638 28.1779 8.4967 23.8204 12.2986 20.7453C16.0756 17.6903 20.9981 15.586 26.0621 16.8175L26.064 16.818C29.4526 17.6448 31.9081 19.7365 33.5263 21.6122C34.688 22.9587 35.4901 24.2776 35.9545 25.1202L35.9877 25.1371L36.3651 25.8859C40.0039 33.1041 37.67 40.6694 36.7037 43.8019C36.6907 43.8439 36.678 43.8851 36.6656 43.9255L3.94 32.395ZM3.94 32.395C3.77025 32.8729 3.6321 33.3199 3.52723 33.7143C3.00585 35.6428 4.64712 37.4034 6.55448 37.1246L6.18323 34.5844M3.94 32.395L23.466 27.5187C20.0341 26.1802 15.9051 30.1464 14.2267 33.2788C14.1048 33.5055 13.9944 33.7306 13.8943 33.9526C14.103 34.0954 14.2896 34.2331 14.454 34.3606L13.212 35.9621C13.185 36.0763 13.1604 36.1877 13.1382 36.296C13.1114 36.4112 12.9773 36.4605 12.8808 36.3892C12.7978 36.3249 12.7077 36.2573 12.6104 36.1875L10.6235 35.7793C10.6638 35.5829 10.7104 35.3778 10.7642 35.1653C10.3913 35.0127 9.983 34.8752 9.54005 34.7654C9.22221 34.686 8.91455 34.6278 8.61969 34.5864C8.56692 34.7542 8.52304 34.9062 8.48778 35.0392L8.48715 35.0416C8.52864 34.8857 8.55409 34.7311 8.56478 34.5789C7.80582 34.4774 7.1336 34.4877 6.59322 34.537C6.58572 34.5377 6.57825 34.5384 6.57081 34.5391C6.43257 34.5521 6.30312 34.5676 6.18323 34.5844M6.18323 34.5844L6.53952 37.1268C7.088 37.0499 7.93345 37.0102 8.91786 37.2561L8.92259 37.2573C9.66403 37.441 10.2717 37.7354 10.7359 38.0217M6.18323 34.5844C6.07062 34.6009 5.9741 34.4966 6.00627 34.3814C6.03499 34.2731 6.06731 34.158 6.10323 34.037C6.10397 34.0345 6.10472 34.032 6.10546 34.0295L10.7359 38.0217M10.7359 38.0217C10.3262 38.3701 9.9332 38.7498 9.55969 39.1612C9.55941 39.1615 9.55913 39.1618 9.55884 39.1621L11.4598 40.8875L10.7359 38.0217ZM24.5035 32.3546C24.8387 33.475 24.8811 34.8757 24.5006 36.3423C21.8824 35.0854 18.8975 34.7387 16.0838 35.3644C16.1962 35.0807 16.3296 34.7889 16.4879 34.4944L16.4896 34.4913C17.1621 33.2362 18.3669 31.7674 19.6992 30.7981C21.1027 29.7769 22.0347 29.716 22.5332 29.9105L22.5352 29.9113C23.3493 30.228 24.1025 31.0147 24.5035 32.3546ZM20.4355 60.4214C23.7152 59.9014 26.7722 58.3713 28.735 56.7964L10.1914 57.5027C13.2295 60.4713 17.1165 60.9477 20.4355 60.4214ZM34.1476 49.7756C34.8456 48.526 35.8823 46.4679 36.6655 43.9256L28.7351 56.7963C31.4292 54.6348 33.2299 51.416 34.0843 49.8887C34.1055 49.8508 34.1261 49.814 34.1462 49.7782L34.1476 49.7756Z" fill="#FBFBFB"/>
<path d="M3.94 32.395C5.42638 28.1779 8.4967 23.8204 12.2986 20.7453C16.0756 17.6903 20.9981 15.586 26.0621 16.8175L26.064 16.818C29.4526 17.6448 31.9081 19.7365 33.5263 21.6122C34.688 22.9587 35.4901 24.2776 35.9545 25.1202L35.9877 25.1371L36.3651 25.8859C40.0039 33.1041 37.67 40.6694 36.7037 43.8019C36.6907 43.8439 36.678 43.8851 36.6656 43.9255L3.94 32.395ZM3.94 32.395C3.77025 32.8729 3.6321 33.3199 3.52723 33.7143C3.00585 35.6428 4.64712 37.4034 6.55448 37.1246L6.18323 34.5844M3.94 32.395L23.466 27.5187C20.0341 26.1802 15.9051 30.1464 14.2267 33.2788C14.1048 33.5055 13.9944 33.7306 13.8943 33.9526C14.103 34.0954 14.2896 34.2331 14.454 34.3606L13.212 35.9621C13.185 36.0763 13.1604 36.1877 13.1382 36.296C13.1114 36.4112 12.9773 36.4605 12.8808 36.3892C12.7978 36.3249 12.7077 36.2573 12.6104 36.1875L10.6235 35.7793C10.6638 35.5829 10.7104 35.3778 10.7642 35.1653C10.3913 35.0127 9.983 34.8752 9.54005 34.7654C9.22221 34.686 8.91455 34.6278 8.61969 34.5864C8.56692 34.7542 8.52304 34.9062 8.48778 35.0392L8.48715 35.0416C8.52864 34.8857 8.55409 34.7311 8.56478 34.5789C7.80582 34.4774 7.1336 34.4877 6.59322 34.537C6.58572 34.5377 6.57825 34.5384 6.57081 34.5391C6.43257 34.5521 6.30312 34.5676 6.18323 34.5844M6.18323 34.5844L6.53952 37.1268C7.088 37.0499 7.93345 37.0102 8.91786 37.2561L8.92259 37.2573C9.66403 37.441 10.2717 37.7354 10.7359 38.0217M6.18323 34.5844C6.07062 34.6009 5.9741 34.4966 6.00627 34.3814C6.03499 34.2731 6.06731 34.158 6.10323 34.037C6.10397 34.0345 6.10472 34.032 6.10546 34.0295L10.7359 38.0217M10.7359 38.0217C10.3262 38.3701 9.9332 38.7498 9.55969 39.1612C9.55941 39.1615 9.55913 39.1618 9.55884 39.1621L11.4598 40.8875L10.7359 38.0217ZM24.5035 32.3546C24.8387 33.475 24.8811 34.8757 24.5006 36.3423C21.8824 35.0854 18.8975 34.7387 16.0838 35.3644C16.1962 35.0807 16.3296 34.7889 16.4879 34.4944L16.4896 34.4913C17.1621 33.2362 18.3669 31.7674 19.6992 30.7981C21.1027 29.7769 22.0347 29.716 22.5332 29.9105L22.5352 29.9113C23.3493 30.228 24.1025 31.0147 24.5035 32.3546ZM20.4355 60.4214C23.7152 59.9014 26.7722 58.3713 28.735 56.7964L10.1914 57.5027C13.2295 60.4713 17.1165 60.9477 20.4355 60.4214ZM34.1476 49.7756C34.8456 48.526 35.8823 46.4679 36.6655 43.9256L28.7351 56.7963C31.4292 54.6348 33.2299 51.416 34.0843 49.8887C34.1055 49.8508 34.1261 49.814 34.1462 49.7782L34.1476 49.7756Z" fill="#8100FF"/>
<path d="M3.94 32.395C5.42638 28.1779 8.4967 23.8204 12.2986 20.7453C16.0756 17.6903 20.9981 15.586 26.0621 16.8175L26.064 16.818C29.4526 17.6448 31.9081 19.7365 33.5263 21.6122C34.688 22.9587 35.4901 24.2776 35.9545 25.1202L35.9877 25.1371L36.3651 25.8859C40.0039 33.1041 37.67 40.6694 36.7037 43.8019C36.6907 43.8439 36.678 43.8851 36.6656 43.9255L3.94 32.395ZM3.94 32.395C3.77025 32.8729 3.6321 33.3199 3.52723 33.7143C3.00585 35.6428 4.64712 37.4034 6.55448 37.1246L6.18323 34.5844M3.94 32.395L23.466 27.5187C20.0341 26.1802 15.9051 30.1464 14.2267 33.2788C14.1048 33.5055 13.9944 33.7306 13.8943 33.9526C14.103 34.0954 14.2896 34.2331 14.454 34.3606L13.212 35.9621C13.185 36.0763 13.1604 36.1877 13.1382 36.296C13.1114 36.4112 12.9773 36.4605 12.8808 36.3892C12.7978 36.3249 12.7077 36.2573 12.6104 36.1875L10.6235 35.7793C10.6638 35.5829 10.7104 35.3778 10.7642 35.1653C10.3913 35.0127 9.983 34.8752 9.54005 34.7654C9.22221 34.686 8.91455 34.6278 8.61969 34.5864C8.56692 34.7542 8.52304 34.9062 8.48778 35.0392L8.48715 35.0416C8.52864 34.8857 8.55409 34.7311 8.56478 34.5789C7.80582 34.4774 7.1336 34.4877 6.59322 34.537C6.58572 34.5377 6.57825 34.5384 6.57081 34.5391C6.43257 34.5521 6.30312 34.5676 6.18323 34.5844M6.18323 34.5844L6.53952 37.1268C7.088 37.0499 7.93345 37.0102 8.91786 37.2561L8.92259 37.2573C9.66403 37.441 10.2717 37.7354 10.7359 38.0217M6.18323 34.5844C6.07062 34.6009 5.9741 34.4966 6.00627 34.3814C6.03499 34.2731 6.06731 34.158 6.10323 34.037C6.10397 34.0345 6.10472 34.032 6.10546 34.0295L10.7359 38.0217M10.7359 38.0217C10.3262 38.3701 9.9332 38.7498 9.55969 39.1612C9.55941 39.1615 9.55913 39.1618 9.55884 39.1621L11.4598 40.8875L10.7359 38.0217ZM24.5035 32.3546C24.8387 33.475 24.8811 34.8757 24.5006 36.3423C21.8824 35.0854 18.8975 34.7387 16.0838 35.3644C16.1962 35.0807 16.3296 34.7889 16.4879 34.4944L16.4896 34.4913C17.1621 33.2362 18.3669 31.7674 19.6992 30.7981C21.1027 29.7769 22.0347 29.716 22.5332 29.9105L22.5352 29.9113C23.3493 30.228 24.1025 31.0147 24.5035 32.3546ZM20.4355 60.4214C23.7152 59.9014 26.7722 58.3713 28.735 56.7964L10.1914 57.5027C13.2295 60.4713 17.1165 60.9477 20.4355 60.4214ZM34.1476 49.7756C34.8456 48.526 35.8823 46.4679 36.6655 43.9256L28.7351 56.7963C31.4292 54.6348 33.2299 51.416 34.0843 49.8887C34.1055 49.8508 34.1261 49.814 34.1462 49.7782L34.1476 49.7756Z" stroke="#F0F0F0" stroke-width="5.13442"/>
<mask id="path-6-outside-1_198_79" maskUnits="userSpaceOnUse" x="64.7555" y="0" width="38" height="85" fill="black">
<rect fill="white" x="64.7555" width="38" height="85"/>
<path d="M95.5413 6.02564H95.5091C94.635 5.86656 93.8039 6.4645 93.6537 7.3532L90.5543 25.5934C90.5543 25.5934 90.5436 25.6099 90.5382 25.6099L90.1575 25.6373C89.9108 25.6537 89.691 25.4892 89.632 25.2423L89.3263 24.019C89.203 23.5198 89.2137 22.9876 89.4068 22.5104C89.9055 21.2816 89.8947 19.4384 89.2781 17.5458C88.3129 14.5889 86.2215 12.636 84.6075 13.1901C82.9934 13.7441 82.4679 16.5858 83.4331 19.5426C84.141 21.7149 85.4601 23.3442 86.7524 23.8325C86.9079 23.8928 87.0313 24.0135 87.0688 24.1781L87.3208 25.1984C87.4013 25.5166 87.176 25.8293 86.8597 25.8512L86.3556 25.8841C85.8194 25.9171 85.2885 25.7525 84.8595 25.4233L73.352 16.4596C72.6495 15.911 71.6414 16.0482 71.1051 16.7723L71.0837 16.7997C70.5475 17.5183 70.6815 18.5497 71.3893 19.0982L80.2318 25.9884C83.6959 28.6874 85.8408 32.7907 86.1197 37.2342L86.6076 45.035C86.731 47.0208 86.2966 48.9957 85.3475 50.7347L72.8586 73.6652C72.3975 74.5155 72.5262 75.6236 73.2608 76.2325C74.2153 77.0225 75.5827 76.7208 76.1511 75.673L90.1253 50.016C90.2272 49.824 90.4203 49.7033 90.6347 49.6869L90.8385 49.6759C90.9726 49.665 91.0852 49.7692 91.0905 49.9063L92.163 77.1816C92.2006 78.1525 92.8762 79.0303 93.8146 79.1564C95.0319 79.321 96.0453 78.3336 95.9971 77.1377L94.9085 49.4126H94.9461L93.8253 31.4467C93.6537 28.6709 93.7985 25.8786 94.265 23.1358L96.8497 7.94018C96.9998 7.046 96.4153 6.1957 95.5466 6.0421L95.5413 6.02564Z"/>
</mask>
<path d="M95.5413 6.02564H95.5091C94.635 5.86656 93.8039 6.4645 93.6537 7.3532L90.5543 25.5934C90.5543 25.5934 90.5436 25.6099 90.5382 25.6099L90.1575 25.6373C89.9108 25.6537 89.691 25.4892 89.632 25.2423L89.3263 24.019C89.203 23.5198 89.2137 22.9876 89.4068 22.5104C89.9055 21.2816 89.8947 19.4384 89.2781 17.5458C88.3129 14.5889 86.2215 12.636 84.6075 13.1901C82.9934 13.7441 82.4679 16.5858 83.4331 19.5426C84.141 21.7149 85.4601 23.3442 86.7524 23.8325C86.9079 23.8928 87.0313 24.0135 87.0688 24.1781L87.3208 25.1984C87.4013 25.5166 87.176 25.8293 86.8597 25.8512L86.3556 25.8841C85.8194 25.9171 85.2885 25.7525 84.8595 25.4233L73.352 16.4596C72.6495 15.911 71.6414 16.0482 71.1051 16.7723L71.0837 16.7997C70.5475 17.5183 70.6815 18.5497 71.3893 19.0982L80.2318 25.9884C83.6959 28.6874 85.8408 32.7907 86.1197 37.2342L86.6076 45.035C86.731 47.0208 86.2966 48.9957 85.3475 50.7347L72.8586 73.6652C72.3975 74.5155 72.5262 75.6236 73.2608 76.2325C74.2153 77.0225 75.5827 76.7208 76.1511 75.673L90.1253 50.016C90.2272 49.824 90.4203 49.7033 90.6347 49.6869L90.8385 49.6759C90.9726 49.665 91.0852 49.7692 91.0905 49.9063L92.163 77.1816C92.2006 78.1525 92.8762 79.0303 93.8146 79.1564C95.0319 79.321 96.0453 78.3336 95.9971 77.1377L94.9085 49.4126H94.9461L93.8253 31.4467C93.6537 28.6709 93.7985 25.8786 94.265 23.1358L96.8497 7.94018C96.9998 7.046 96.4153 6.1957 95.5466 6.0421L95.5413 6.02564Z" fill="#FBFBFB"/>
<path d="M95.5413 6.02564H95.5091C94.635 5.86656 93.8039 6.4645 93.6537 7.3532L90.5543 25.5934C90.5543 25.5934 90.5436 25.6099 90.5382 25.6099L90.1575 25.6373C89.9108 25.6537 89.691 25.4892 89.632 25.2423L89.3263 24.019C89.203 23.5198 89.2137 22.9876 89.4068 22.5104C89.9055 21.2816 89.8947 19.4384 89.2781 17.5458C88.3129 14.5889 86.2215 12.636 84.6075 13.1901C82.9934 13.7441 82.4679 16.5858 83.4331 19.5426C84.141 21.7149 85.4601 23.3442 86.7524 23.8325C86.9079 23.8928 87.0313 24.0135 87.0688 24.1781L87.3208 25.1984C87.4013 25.5166 87.176 25.8293 86.8597 25.8512L86.3556 25.8841C85.8194 25.9171 85.2885 25.7525 84.8595 25.4233L73.352 16.4596C72.6495 15.911 71.6414 16.0482 71.1051 16.7723L71.0837 16.7997C70.5475 17.5183 70.6815 18.5497 71.3893 19.0982L80.2318 25.9884C83.6959 28.6874 85.8408 32.7907 86.1197 37.2342L86.6076 45.035C86.731 47.0208 86.2966 48.9957 85.3475 50.7347L72.8586 73.6652C72.3975 74.5155 72.5262 75.6236 73.2608 76.2325C74.2153 77.0225 75.5827 76.7208 76.1511 75.673L90.1253 50.016C90.2272 49.824 90.4203 49.7033 90.6347 49.6869L90.8385 49.6759C90.9726 49.665 91.0852 49.7692 91.0905 49.9063L92.163 77.1816C92.2006 78.1525 92.8762 79.0303 93.8146 79.1564C95.0319 79.321 96.0453 78.3336 95.9971 77.1377L94.9085 49.4126H94.9461L93.8253 31.4467C93.6537 28.6709 93.7985 25.8786 94.265 23.1358L96.8497 7.94018C96.9998 7.046 96.4153 6.1957 95.5466 6.0421L95.5413 6.02564Z" fill="#8100FF"/>
<path d="M95.5413 6.02564L100.423 4.43352L99.2672 0.891219H95.5413V6.02564ZM95.5091 6.02564L94.5897 11.0771L95.0457 11.1601H95.5091V6.02564ZM93.6537 7.3532L98.7156 8.21333L98.7164 8.20854L93.6537 7.3532ZM90.5543 25.5934L94.8566 28.3956L95.4378 27.5033L95.6162 26.4535L90.5543 25.5934ZM90.5382 25.6099V20.4754H90.3536L90.1694 20.4887L90.5382 25.6099ZM90.1575 25.6373L90.4993 30.7603L90.5128 30.7594L90.5264 30.7584L90.1575 25.6373ZM89.632 25.2423L94.6258 24.049L94.6197 24.0233L94.6133 23.9977L89.632 25.2423ZM89.3263 24.019L84.3418 25.2505L84.345 25.2636L89.3263 24.019ZM89.4068 22.5104L84.6492 20.5796L84.647 20.5851L89.4068 22.5104ZM89.2781 17.5458L94.1599 15.9551L94.159 15.9524L89.2781 17.5458ZM83.4331 19.5426L88.315 17.9519L88.3141 17.9493L83.4331 19.5426ZM86.7524 23.8325L88.6098 19.0458L88.5885 19.0375L88.567 19.0294L86.7524 23.8325ZM87.0688 24.1781L82.0629 25.3198L82.0732 25.3646L82.0842 25.4093L87.0688 24.1781ZM87.3208 25.1984L82.3362 26.4296L82.3396 26.4432L82.343 26.4568L87.3208 25.1984ZM86.8597 25.8512L87.1943 30.9747L87.2046 30.9741L87.2149 30.9733L86.8597 25.8512ZM86.3556 25.8841L86.6702 31.0089L86.6802 31.0083L86.6902 31.0076L86.3556 25.8841ZM84.8595 25.4233L81.7043 29.4739L81.7191 29.4854L81.734 29.4969L84.8595 25.4233ZM73.352 16.4596L70.1918 20.5063L70.1968 20.5102L73.352 16.4596ZM71.1051 16.7723L75.1496 19.9353L75.1912 19.8821L75.2314 19.8279L71.1051 16.7723ZM71.0837 16.7997L67.0392 13.6367L67.0034 13.6825L66.9686 13.7291L71.0837 16.7997ZM71.3893 19.0982L74.5452 15.0482L74.5346 15.0399L71.3893 19.0982ZM80.2318 25.9884L77.076 30.0384L77.0762 30.0386L80.2318 25.9884ZM86.1197 37.2342L91.2441 36.9136L91.244 36.9126L86.1197 37.2342ZM86.6076 45.035L91.7322 44.7167L91.732 44.7144L86.6076 45.035ZM85.3475 50.7347L80.8406 48.2749L80.8385 48.2789L85.3475 50.7347ZM72.8586 73.6652L68.3496 71.2094L68.3453 71.2174L72.8586 73.6652ZM73.2608 76.2325L69.9842 80.1856L69.9872 80.188L73.2608 76.2325ZM76.1511 75.673L71.6421 73.2171L71.638 73.2247L76.1511 75.673ZM90.1253 50.016L94.6343 52.4719L94.6477 52.4474L94.6608 52.4227L90.1253 50.016ZM90.6347 49.6869L90.3588 44.5599L90.3004 44.563L90.242 44.5675L90.6347 49.6869ZM90.8385 49.6759L91.1144 54.8029L91.1859 54.7991L91.2573 54.7932L90.8385 49.6759ZM91.0905 49.9063L85.96 50.1069L85.9601 50.108L91.0905 49.9063ZM92.163 77.1816L97.2936 76.9832L97.2935 76.9798L92.163 77.1816ZM93.8146 79.1564L94.5025 74.0683L94.4988 74.0678L93.8146 79.1564ZM95.9971 77.1377L90.8666 77.3391L90.8668 77.3447L95.9971 77.1377ZM94.9085 49.4126V44.2782H89.5686L89.7781 49.614L94.9085 49.4126ZM94.9461 49.4126V54.547H100.411L100.071 49.0929L94.9461 49.4126ZM93.8253 31.4467L88.7007 31.7635L88.7009 31.7664L93.8253 31.4467ZM94.265 23.1358L89.2033 22.2748L89.2033 22.2748L94.265 23.1358ZM96.8497 7.94018L101.911 8.80114L101.913 8.79042L96.8497 7.94018ZM95.5466 6.0421L90.6653 7.63422L91.6202 10.5619L94.6527 11.0981L95.5466 6.0421ZM95.5413 0.891219H95.5091V11.1601H95.5413V0.891219ZM96.4285 0.974208C92.6426 0.285133 89.2012 2.88625 88.5911 6.49786L98.7164 8.20854C98.4065 10.0428 96.6275 11.448 94.5897 11.0771L96.4285 0.974208ZM88.5919 6.49307L85.4924 24.7333L95.6162 26.4535L98.7156 8.21333L88.5919 6.49307ZM90.5543 25.5934C86.252 22.7912 86.2523 22.7907 86.2526 22.7902C86.2527 22.7901 86.253 22.7896 86.2532 22.7893C86.2537 22.7886 86.2541 22.788 86.2545 22.7873C86.2554 22.786 86.2562 22.7847 86.2571 22.7834C86.2588 22.7808 86.2605 22.7781 86.2623 22.7754C86.2658 22.77 86.2695 22.7645 86.2732 22.7588C86.2807 22.7475 86.2888 22.7354 86.2974 22.7227C86.3143 22.6977 86.3344 22.6684 86.3573 22.6358C86.3983 22.5777 86.4701 22.4784 86.5666 22.3599C86.6393 22.2707 86.8455 22.0209 87.1569 21.7477C87.3118 21.6118 87.6119 21.3637 88.0376 21.1261C88.4037 20.9217 89.2982 20.4754 90.5382 20.4754V30.7443C91.7796 30.7443 92.6756 30.2975 93.0433 30.0922C93.4706 29.8537 93.7725 29.6043 93.9291 29.4669C94.2441 29.1906 94.454 28.9367 94.5299 28.8433C94.6298 28.7207 94.7046 28.6173 94.7478 28.5561C94.7718 28.522 94.7928 28.4914 94.8103 28.4654C94.8192 28.4523 94.8275 28.4399 94.8351 28.4283C94.839 28.4225 94.8427 28.4169 94.8463 28.4114C94.8481 28.4087 94.8498 28.406 94.8515 28.4034C94.8524 28.4021 94.8533 28.4008 94.8541 28.3995C94.8545 28.3988 94.855 28.3982 94.8554 28.3975C94.8556 28.3972 94.8559 28.3967 94.856 28.3965C94.8563 28.3961 94.8566 28.3956 90.5543 25.5934ZM90.1694 20.4887L89.7886 20.5161L90.5264 30.7584L90.9071 30.731L90.1694 20.4887ZM89.8157 20.5142C92.1493 20.3585 94.1219 21.9401 94.6258 24.049L84.6382 26.4355C85.26 29.0382 87.6724 30.9489 90.4993 30.7603L89.8157 20.5142ZM94.6133 23.9977L94.3076 22.7744L84.345 25.2636L84.6507 26.4869L94.6133 23.9977ZM94.3109 22.7875C94.3994 23.1458 94.4474 23.7415 94.1666 24.4356L84.647 20.5851C83.9801 22.2338 84.0066 23.8938 84.3418 25.2505L94.3109 22.7875ZM94.1643 24.4412C95.2596 21.7424 95.0164 18.5838 94.1599 15.9551L84.3963 19.1364C84.5591 19.6361 84.6209 20.07 84.6273 20.3821C84.6343 20.7234 84.574 20.7649 84.6492 20.5796L94.1643 24.4412ZM94.159 15.9524C93.4617 13.8161 92.286 11.7874 90.6887 10.2971C89.2434 8.94873 86.3713 7.15606 82.9405 8.33379L86.2745 18.0463C85.4117 18.3425 84.6527 18.2285 84.2057 18.074C83.8013 17.9343 83.6425 17.7673 83.6835 17.8056C83.7766 17.8924 84.1293 18.3186 84.3971 19.1391L94.159 15.9524ZM82.9405 8.33379C79.5636 9.49297 78.3598 12.6087 78.0042 14.5318C77.6088 16.6708 77.854 18.9971 78.5522 21.1359L88.3141 17.9493C88.0471 17.1313 88.0724 16.5583 88.1019 16.3987C88.1154 16.3258 88.0948 16.5266 87.8753 16.8548C87.635 17.2142 87.1256 17.7542 86.2745 18.0463L82.9405 8.33379ZM78.5513 21.1332C79.489 24.011 81.5672 27.3621 84.9378 28.6355L88.567 19.0294C88.8466 19.135 88.9897 19.2475 89.0123 19.2658C89.0396 19.2878 88.9994 19.2599 88.915 19.1521C88.7403 18.9292 88.5014 18.5242 88.315 17.9519L78.5513 21.1332ZM84.895 28.6191C83.7891 28.19 82.4767 27.1337 82.0629 25.3198L92.0747 23.0363C91.5859 20.8932 90.0268 19.5956 88.6098 19.0458L84.895 28.6191ZM82.0842 25.4093L82.3362 26.4296L92.3054 23.9672L92.0534 22.9468L82.0842 25.4093ZM82.343 26.4568C81.6626 23.7653 83.5332 20.9352 86.5044 20.7291L87.2149 30.9733C90.8189 30.7234 93.1399 27.2679 92.2987 23.94L82.343 26.4568ZM86.525 20.7277L86.021 20.7606L86.6902 31.0076L87.1943 30.9747L86.525 20.7277ZM86.041 20.7594C86.7603 20.7152 87.4472 20.9372 87.985 21.3498L81.734 29.4969C83.1298 30.5678 84.8785 31.1189 86.6702 31.0089L86.041 20.7594ZM88.0147 21.3728L76.5071 12.409L70.1968 20.5102L81.7043 29.4739L88.0147 21.3728ZM76.5121 12.4129C73.5176 10.0744 69.2208 10.6893 66.9789 13.7167L75.2314 19.8279C74.0619 21.407 71.7813 21.7476 70.1918 20.5063L76.5121 12.4129ZM67.0607 13.6093L67.0392 13.6367L75.1282 19.9627L75.1496 19.9353L67.0607 13.6093ZM66.9686 13.7291C64.781 16.6609 65.2941 20.8703 68.2441 23.1565L74.5346 15.0399C76.0689 16.229 76.314 18.3758 75.1988 19.8703L66.9686 13.7291ZM68.2335 23.1483L77.076 30.0384L83.3877 21.9383L74.5452 15.0482L68.2335 23.1483ZM77.0762 30.0386C79.3589 31.8171 80.8068 34.5523 80.9953 37.5558L91.244 36.9126C90.8748 31.0292 88.0329 25.5576 83.3875 21.9382L77.0762 30.0386ZM80.9953 37.5547L81.4832 45.3555L91.732 44.7144L91.2441 36.9136L80.9953 37.5547ZM81.4831 45.3532C81.5471 46.3839 81.3212 47.3945 80.8406 48.2749L89.8543 53.1945C91.2721 50.5969 91.9148 47.6577 91.7322 44.7167L81.4831 45.3532ZM80.8385 48.2789L68.3496 71.2094L77.3677 76.121L89.8565 53.1905L80.8385 48.2789ZM68.3453 71.2174C66.9212 73.843 67.0478 77.7517 69.9842 80.1856L76.5374 72.2795C77.2657 72.8832 77.6001 73.6624 77.693 74.3054C77.7833 74.931 77.6728 75.5583 77.372 76.113L68.3453 71.2174ZM69.9872 80.188C73.5023 83.0972 78.5972 81.9315 80.6642 78.1213L71.638 73.2247C72.5682 71.51 74.9283 70.9478 76.5344 72.2771L69.9872 80.188ZM80.6601 78.1288L94.6343 52.4719L85.6163 47.5602L71.6421 73.2171L80.6601 78.1288ZM94.6608 52.4227C93.9009 53.8547 92.4875 54.6942 91.0275 54.8063L90.242 44.5675C88.353 44.7124 86.5535 45.7934 85.5899 47.6093L94.6608 52.4227ZM90.9106 54.8139L91.1144 54.8029L90.5626 44.5489L90.3588 44.5599L90.9106 54.8139ZM91.2573 54.7932C88.309 55.0345 86.062 52.715 85.96 50.1069L96.2211 49.7057C96.1084 46.8234 93.6361 44.2954 90.4197 44.5586L91.2573 54.7932ZM85.9601 50.108L87.0326 77.3833L97.2935 76.9798L96.221 49.7046L85.9601 50.108ZM87.0324 77.3799C87.1473 80.3512 89.2586 83.7245 93.1304 84.2451L94.4988 74.0678C95.4747 74.199 96.1991 74.7126 96.6294 75.2401C97.0468 75.7518 97.2695 76.3605 97.2936 76.9832L87.0324 77.3799ZM93.1267 84.2446C97.6802 84.8602 101.297 81.1405 101.127 76.9307L90.8668 77.3447C90.7935 75.5267 92.3836 73.7818 94.5025 74.0683L93.1267 84.2446ZM101.128 76.9363L100.039 49.2112L89.7781 49.614L90.8666 77.3391L101.128 76.9363ZM94.9085 54.547H94.9461V44.2782H94.9085V54.547ZM100.071 49.0929L98.9498 31.127L88.7009 31.7664L89.8216 49.7323L100.071 49.0929ZM98.95 31.1299C98.8024 28.7425 98.9273 26.3455 99.3268 23.9967L89.2033 22.2748C88.6698 25.4118 88.5051 28.5994 88.7007 31.7635L98.95 31.1299ZM99.3268 23.9967L101.911 8.80114L91.788 7.07922L89.2033 22.2748L99.3268 23.9967ZM101.913 8.79042C102.509 5.24038 100.206 1.65196 96.4406 0.986104L94.6527 11.0981C92.6243 10.7394 91.4903 8.85162 91.7861 7.08994L101.913 8.79042ZM100.428 4.44998L100.423 4.43352L90.6599 7.61776L90.6653 7.63422L100.428 4.44998Z" fill="#F0F0F0" mask="url(#path-6-outside-1_198_79)"/>
<path d="M101.899 3.45843C104.116 3.20589 106.098 4.76488 106.464 6.92313C106.464 6.92335 106.464 6.92356 106.464 6.92378C106.464 6.92436 106.464 6.92494 106.464 6.92553L107.565 13.3998C107.898 12.9485 108.261 12.5366 108.649 12.1742C109.795 11.1057 111.694 10.0345 113.813 10.7619C115.905 11.48 116.774 13.4624 117.058 14.9986C117.28 16.1962 117.246 17.5232 116.982 18.8547L122.655 14.4362C122.655 14.4359 122.656 14.4356 122.656 14.4354L122.657 14.4343L124.235 16.4596C124.937 15.911 125.945 16.0482 126.482 16.7723L101.899 3.45843ZM101.899 3.45843H100.183L99.9425 4.19447C98.6348 5.10863 97.9318 6.73622 98.2054 8.3653L98.2054 8.3653L98.2063 8.37066L100.791 23.5662C100.791 23.5662 100.791 23.5662 100.791 23.5662C101.224 26.1116 101.359 28.7057 101.199 31.2869C101.199 31.2871 101.199 31.2874 101.199 31.2876C101.199 31.2879 101.199 31.2881 101.199 31.2883L101.899 3.45843ZM106.815 52.2417C107.414 52.2229 107.938 51.9808 108.329 51.6089L108.953 52.7553L108.757 57.7611L106.36 53.3616L106.407 52.1867C106.451 52.1986 106.495 52.2089 106.54 52.2175C106.564 52.2221 106.587 52.2262 106.611 52.2298C106.644 52.235 106.678 52.2393 106.712 52.2427M106.815 52.2417L106.918 50.3118L106.919 50.304L106.939 49.9237L106.939 49.9236L106.952 49.6869L106.934 49.9234L106.934 49.9235L106.904 50.3118L106.904 50.32L106.756 52.2428M106.815 52.2417C106.795 52.2423 106.776 52.2426 106.756 52.2428M106.815 52.2417L106.814 52.2504L106.61 52.2394M106.756 52.2428C106.741 52.2429 106.726 52.2428 106.712 52.2427M106.756 52.2428L106.756 52.2466C106.741 52.2454 106.726 52.2441 106.712 52.2427M106.712 52.2427C106.678 52.2423 106.644 52.2412 106.61 52.2394M102.641 49.4111V46.8454H102.678H102.801L102.678 48.8111L102.641 49.4111L102.641 49.4111ZM102.641 49.4111L102.577 49.4086L100.113 49.3119L100.008 51.9798H102.578L102.641 50.3683L102.678 49.4149L102.641 49.4126V49.4111ZM106.61 52.2394C106.587 52.2382 106.563 52.2365 106.539 52.2346L106.575 52.2375L106.61 52.2394ZM128.525 15.2178L128.52 15.2111L114.029 37.3945C114.263 33.6712 116.06 30.2521 118.933 28.0135L118.933 28.0134L127.77 21.1274C127.771 21.1267 127.772 21.126 127.773 21.1253C129.599 19.7074 129.922 17.0887 128.561 15.2644L128.543 15.2409L128.525 15.2178ZM113.541 45.1941L114.029 37.395L119.179 76.8971L121.436 75.673L119.181 76.9009L119.18 76.8985C120.498 79.3264 123.728 80.0595 125.963 78.2103L125.964 78.2091C127.8 76.6877 127.927 74.1793 126.985 72.4413L126.983 72.4373L114.494 49.5068L114.493 49.5048C113.778 48.1954 113.448 46.7031 113.541 45.1952C113.541 45.1949 113.541 45.1945 113.541 45.1941ZM101.59 77.1377L99.0246 77.0342L107.989 77.2807C107.989 77.2811 107.989 77.2815 107.989 77.2819C107.989 77.2821 107.989 77.2822 107.989 77.2824C107.912 79.2531 106.519 81.3775 104.114 81.7008C101.23 82.0895 98.9165 79.7374 99.0246 77.0359L99.0245 77.037L101.59 77.1377Z" fill="#FBFBFB"/>
<path d="M101.899 3.45843C104.116 3.20589 106.098 4.76488 106.464 6.92313C106.464 6.92335 106.464 6.92356 106.464 6.92378C106.464 6.92436 106.464 6.92494 106.464 6.92553L107.565 13.3998C107.898 12.9485 108.261 12.5366 108.649 12.1742C109.795 11.1057 111.694 10.0345 113.813 10.7619C115.905 11.48 116.774 13.4624 117.058 14.9986C117.28 16.1962 117.246 17.5232 116.982 18.8547L122.655 14.4362C122.655 14.4359 122.656 14.4356 122.656 14.4354L122.657 14.4343L124.235 16.4596C124.937 15.911 125.945 16.0482 126.482 16.7723L101.899 3.45843ZM101.899 3.45843H100.183L99.9425 4.19447C98.6348 5.10863 97.9318 6.73622 98.2054 8.3653L98.2054 8.3653L98.2063 8.37066L100.791 23.5662C100.791 23.5662 100.791 23.5662 100.791 23.5662C101.224 26.1116 101.359 28.7057 101.199 31.2869C101.199 31.2871 101.199 31.2874 101.199 31.2876C101.199 31.2879 101.199 31.2881 101.199 31.2883L101.899 3.45843ZM106.815 52.2417C107.414 52.2229 107.938 51.9808 108.329 51.6089L108.953 52.7553L108.757 57.7611L106.36 53.3616L106.407 52.1867C106.451 52.1986 106.495 52.2089 106.54 52.2175C106.564 52.2221 106.587 52.2262 106.611 52.2298C106.644 52.235 106.678 52.2393 106.712 52.2427M106.815 52.2417L106.918 50.3118L106.919 50.304L106.939 49.9237L106.939 49.9236L106.952 49.6869L106.934 49.9234L106.934 49.9235L106.904 50.3118L106.904 50.32L106.756 52.2428M106.815 52.2417C106.795 52.2423 106.776 52.2426 106.756 52.2428M106.815 52.2417L106.814 52.2504L106.61 52.2394M106.756 52.2428C106.741 52.2429 106.726 52.2428 106.712 52.2427M106.756 52.2428L106.756 52.2466C106.741 52.2454 106.726 52.2441 106.712 52.2427M106.712 52.2427C106.678 52.2423 106.644 52.2412 106.61 52.2394M102.641 49.4111V46.8454H102.678H102.801L102.678 48.8111L102.641 49.4111L102.641 49.4111ZM102.641 49.4111L102.577 49.4086L100.113 49.3119L100.008 51.9798H102.578L102.641 50.3683L102.678 49.4149L102.641 49.4126V49.4111ZM106.61 52.2394C106.587 52.2382 106.563 52.2365 106.539 52.2346L106.575 52.2375L106.61 52.2394ZM128.525 15.2178L128.52 15.2111L114.029 37.3945C114.263 33.6712 116.06 30.2521 118.933 28.0135L118.933 28.0134L127.77 21.1274C127.771 21.1267 127.772 21.126 127.773 21.1253C129.599 19.7074 129.922 17.0887 128.561 15.2644L128.543 15.2409L128.525 15.2178ZM113.541 45.1941L114.029 37.395L119.179 76.8971L121.436 75.673L119.181 76.9009L119.18 76.8985C120.498 79.3264 123.728 80.0595 125.963 78.2103L125.964 78.2091C127.8 76.6877 127.927 74.1793 126.985 72.4413L126.983 72.4373L114.494 49.5068L114.493 49.5048C113.778 48.1954 113.448 46.7031 113.541 45.1952C113.541 45.1949 113.541 45.1945 113.541 45.1941ZM101.59 77.1377L99.0246 77.0342L107.989 77.2807C107.989 77.2811 107.989 77.2815 107.989 77.2819C107.989 77.2821 107.989 77.2822 107.989 77.2824C107.912 79.2531 106.519 81.3775 104.114 81.7008C101.23 82.0895 98.9165 79.7374 99.0246 77.0359L99.0245 77.037L101.59 77.1377Z" fill="#8100FF"/>
<path d="M101.899 3.45843C104.116 3.20589 106.098 4.76488 106.464 6.92313C106.464 6.92335 106.464 6.92356 106.464 6.92378C106.464 6.92436 106.464 6.92494 106.464 6.92553L107.565 13.3998C107.898 12.9485 108.261 12.5366 108.649 12.1742C109.795 11.1057 111.694 10.0345 113.813 10.7619C115.905 11.48 116.774 13.4624 117.058 14.9986C117.28 16.1962 117.246 17.5232 116.982 18.8547L122.655 14.4362C122.655 14.4359 122.656 14.4356 122.656 14.4354L122.657 14.4343L124.235 16.4596C124.937 15.911 125.945 16.0482 126.482 16.7723L101.899 3.45843ZM101.899 3.45843H100.183L99.9425 4.19447C98.6348 5.10863 97.9318 6.73622 98.2054 8.3653L98.2054 8.3653L98.2063 8.37066L100.791 23.5662C100.791 23.5662 100.791 23.5662 100.791 23.5662C101.224 26.1116 101.359 28.7057 101.199 31.2869C101.199 31.2871 101.199 31.2874 101.199 31.2876C101.199 31.2879 101.199 31.2881 101.199 31.2883L101.899 3.45843ZM106.815 52.2417C107.414 52.2229 107.938 51.9808 108.329 51.6089L108.953 52.7553L108.757 57.7611L106.36 53.3616L106.407 52.1867C106.451 52.1986 106.495 52.2089 106.54 52.2175C106.564 52.2221 106.587 52.2262 106.611 52.2298C106.644 52.235 106.678 52.2393 106.712 52.2427M106.815 52.2417L106.918 50.3118L106.919 50.304L106.939 49.9237L106.939 49.9236L106.952 49.6869L106.934 49.9234L106.934 49.9235L106.904 50.3118L106.904 50.32L106.756 52.2428M106.815 52.2417C106.795 52.2423 106.776 52.2426 106.756 52.2428M106.815 52.2417L106.814 52.2504L106.61 52.2394M106.756 52.2428C106.741 52.2429 106.726 52.2428 106.712 52.2427M106.756 52.2428L106.756 52.2466C106.741 52.2454 106.726 52.2441 106.712 52.2427M106.712 52.2427C106.678 52.2423 106.644 52.2412 106.61 52.2394M102.641 49.4111V46.8454H102.678H102.801L102.678 48.8111L102.641 49.4111L102.641 49.4111ZM102.641 49.4111L102.577 49.4086L100.113 49.3119L100.008 51.9798H102.578L102.641 50.3683L102.678 49.4149L102.641 49.4126V49.4111ZM106.61 52.2394C106.587 52.2382 106.563 52.2365 106.539 52.2346L106.575 52.2375L106.61 52.2394ZM128.525 15.2178L128.52 15.2111L114.029 37.3945C114.263 33.6712 116.06 30.2521 118.933 28.0135L118.933 28.0134L127.77 21.1274C127.771 21.1267 127.772 21.126 127.773 21.1253C129.599 19.7074 129.922 17.0887 128.561 15.2644L128.543 15.2409L128.525 15.2178ZM113.541 45.1941L114.029 37.395L119.179 76.8971L121.436 75.673L119.181 76.9009L119.18 76.8985C120.498 79.3264 123.728 80.0595 125.963 78.2103L125.964 78.2091C127.8 76.6877 127.927 74.1793 126.985 72.4413L126.983 72.4373L114.494 49.5068L114.493 49.5048C113.778 48.1954 113.448 46.7031 113.541 45.1952C113.541 45.1949 113.541 45.1945 113.541 45.1941ZM101.59 77.1377L99.0246 77.0342L107.989 77.2807C107.989 77.2811 107.989 77.2815 107.989 77.2819C107.989 77.2821 107.989 77.2822 107.989 77.2824C107.912 79.2531 106.519 81.3775 104.114 81.7008C101.23 82.0895 98.9165 79.7374 99.0246 77.0359L99.0245 77.037L101.59 77.1377Z" stroke="#F0F0F0" stroke-width="5.13442"/>
<path d="M163.315 44.2507C162.05 40.279 158.43 36.4664 153.513 36.066C147.384 35.5722 142.021 40.2516 141.533 46.5218C141.533 46.5218 140.826 55.6556 151.754 58.777C152.274 58.9252 153.272 59.2104 154.172 58.7386C154.462 58.585 154.564 58.4479 155.722 57.1752C156.795 56.0012 156.945 55.8586 157.186 55.6995C158.044 55.1345 158.881 55.1235 159.251 55.0687C159.261 55.0687 159.272 55.0632 159.283 55.0632C159.336 55.2881 159.369 55.4801 159.39 55.6447C159.417 55.908 159.497 56.8899 160.109 57.9048C160.495 58.5521 160.967 58.991 161.294 59.2543C161.363 59.3092 161.455 59.2982 161.508 59.2324C162.055 58.5795 162.945 57.6689 164.254 56.9119C165.664 56.0945 166.988 55.7818 167.863 55.6556C167.97 55.6392 168.029 55.5295 167.986 55.4307C166.431 51.7059 164.87 47.981 163.315 44.2562V44.2507ZM154.167 51.2341C151.229 52.249 148.698 49.5116 149.641 46.6974C150.038 45.507 151.052 44.6237 152.258 44.4098C155.127 43.8996 157.368 46.8839 155.926 49.6981C155.556 50.4167 154.918 50.9763 154.162 51.2341H154.167Z" fill="#FBFBFB"/>
<path d="M163.315 44.2507C162.05 40.279 158.43 36.4664 153.513 36.066C147.384 35.5722 142.021 40.2516 141.533 46.5218C141.533 46.5218 140.826 55.6556 151.754 58.777C152.274 58.9252 153.272 59.2104 154.172 58.7386C154.462 58.585 154.564 58.4479 155.722 57.1752C156.795 56.0012 156.945 55.8586 157.186 55.6995C158.044 55.1345 158.881 55.1235 159.251 55.0687C159.261 55.0687 159.272 55.0632 159.283 55.0632C159.336 55.2881 159.369 55.4801 159.39 55.6447C159.417 55.908 159.497 56.8899 160.109 57.9048C160.495 58.5521 160.967 58.991 161.294 59.2543C161.363 59.3092 161.455 59.2982 161.508 59.2324C162.055 58.5795 162.945 57.6689 164.254 56.9119C165.664 56.0945 166.988 55.7818 167.863 55.6556C167.97 55.6392 168.029 55.5295 167.986 55.4307C166.431 51.7059 164.87 47.981 163.315 44.2562V44.2507ZM154.167 51.2341C151.229 52.249 148.698 49.5116 149.641 46.6974C150.038 45.507 151.052 44.6237 152.258 44.4098C155.127 43.8996 157.368 46.8839 155.926 49.6981C155.556 50.4167 154.918 50.9763 154.162 51.2341H154.167Z" fill="#8100FF"/>
<path d="M140.043 47.1742C139.904 42.2095 136.257 37.9471 131.469 37.1352C129.721 36.839 128.021 37.0035 126.476 37.5356C127.066 36.422 127.758 35.2481 128.578 34.0248C129.898 32.0663 131.254 30.4261 132.509 29.0876C132.595 28.9998 132.552 28.8517 132.439 28.8188C131.828 28.6432 130.991 28.325 130.123 27.7051C129.313 27.1291 128.755 26.4983 128.396 26.0155C128.348 25.9497 128.257 25.9332 128.187 25.9771C126.809 26.9317 125.077 28.336 123.372 30.3164C121.613 32.3626 120.455 34.3539 119.709 35.8899C118.867 37.6124 118.653 39.1375 118.529 39.8013C118.444 40.2895 118.143 42.0559 118.299 44.4038C118.46 46.7901 119.023 48.8528 119.682 50.5205C121.259 54.7994 124.916 57.7452 128.948 58.0031C134.675 58.3706 140.215 53.2688 140.048 47.1687L140.043 47.1742ZM129.49 49.6976C126.921 50.0652 124.9 47.6404 125.656 45.106C126.037 43.8278 127.147 42.8623 128.439 42.6758C131.008 42.3083 133.029 44.733 132.273 47.2674C131.892 48.5456 130.782 49.5111 129.49 49.6976Z" fill="#FBFBFB"/>
<path d="M140.043 47.1742C139.904 42.2095 136.257 37.9471 131.469 37.1352C129.721 36.839 128.021 37.0035 126.476 37.5356C127.066 36.422 127.758 35.2481 128.578 34.0248C129.898 32.0663 131.254 30.4261 132.509 29.0876C132.595 28.9998 132.552 28.8517 132.439 28.8188C131.828 28.6432 130.991 28.325 130.123 27.7051C129.313 27.1291 128.755 26.4983 128.396 26.0155C128.348 25.9497 128.257 25.9332 128.187 25.9771C126.809 26.9317 125.077 28.336 123.372 30.3164C121.613 32.3626 120.455 34.3539 119.709 35.8899C118.867 37.6124 118.653 39.1375 118.529 39.8013C118.444 40.2895 118.143 42.0559 118.299 44.4038C118.46 46.7901 119.023 48.8528 119.682 50.5205C121.259 54.7994 124.916 57.7452 128.948 58.0031C134.675 58.3706 140.215 53.2688 140.048 47.1687L140.043 47.1742ZM129.49 49.6976C126.921 50.0652 124.9 47.6404 125.656 45.106C126.037 43.8278 127.147 42.8623 128.439 42.6758C131.008 42.3083 133.029 44.733 132.273 47.2674C131.892 48.5456 130.782 49.5111 129.49 49.6976Z" fill="#8100FF"/>
<path d="M76.5692 36.9269C74.9122 36.7843 73.7004 36.1534 73.0891 35.7804C72.0488 41.513 69.9575 45.2982 68.086 47.7888C67.775 47.5035 67.3835 47.2237 66.917 46.741C65.7748 45.5615 64.7614 43.7677 64.3914 40.9315C64.3914 40.9206 64.3914 40.9096 64.3914 40.9041C64.4503 38.836 64.5093 36.7678 64.5683 34.6942C64.5683 34.5626 64.4289 34.4803 64.3216 34.5516C63.6085 35.0289 62.4556 35.6542 60.9273 35.9559C59.4151 36.2577 58.1442 36.1205 57.3345 35.9669C57.2434 35.9505 57.1629 36.0108 57.1468 36.1041C57.0932 36.51 57.0235 37.0531 56.9645 37.6895C56.9645 37.6895 56.7232 40.3446 56.8734 42.7034C57.0771 45.8248 59.7369 53.1922 63.0293 54.6953C62.6486 55.2878 62.2035 55.8803 61.6619 56.4508C59.6457 58.5793 57.3613 59.4021 56.1495 59.7313C56.0208 59.7642 55.9886 59.9288 56.0905 60.0111C56.809 60.62 57.8654 61.6842 58.6751 63.3135C59.4526 64.8879 59.6725 66.3362 59.7315 67.2523C59.7369 67.3675 59.8602 67.4388 59.9621 67.3894C62.2143 66.2539 64.8311 64.6575 67.4908 62.3974C68.6866 61.3825 69.7376 60.3621 70.6546 59.3747C70.6706 59.3582 70.6814 59.3363 70.6921 59.3144C73.636 56.5825 76.0651 50.9431 76.9446 48.8969C79.111 43.8609 79.851 39.3407 80.1352 36.4168C79.4702 36.6746 78.194 37.0641 76.5692 36.9269Z" fill="#FBFBFB"/>
<path d="M76.5692 36.9269C74.9122 36.7843 73.7004 36.1534 73.0891 35.7804C72.0488 41.513 69.9575 45.2982 68.086 47.7888C67.775 47.5035 67.3835 47.2237 66.917 46.741C65.7748 45.5615 64.7614 43.7677 64.3914 40.9315C64.3914 40.9206 64.3914 40.9096 64.3914 40.9041C64.4503 38.836 64.5093 36.7678 64.5683 34.6942C64.5683 34.5626 64.4289 34.4803 64.3216 34.5516C63.6085 35.0289 62.4556 35.6542 60.9273 35.9559C59.4151 36.2577 58.1442 36.1205 57.3345 35.9669C57.2434 35.9505 57.1629 36.0108 57.1468 36.1041C57.0932 36.51 57.0235 37.0531 56.9645 37.6895C56.9645 37.6895 56.7232 40.3446 56.8734 42.7034C57.0771 45.8248 59.7369 53.1922 63.0293 54.6953C62.6486 55.2878 62.2035 55.8803 61.6619 56.4508C59.6457 58.5793 57.3613 59.4021 56.1495 59.7313C56.0208 59.7642 55.9886 59.9288 56.0905 60.0111C56.809 60.62 57.8654 61.6842 58.6751 63.3135C59.4526 64.8879 59.6725 66.3362 59.7315 67.2523C59.7369 67.3675 59.8602 67.4388 59.9621 67.3894C62.2143 66.2539 64.8311 64.6575 67.4908 62.3974C68.6866 61.3825 69.7376 60.3621 70.6546 59.3747C70.6706 59.3582 70.6814 59.3363 70.6921 59.3144C73.636 56.5825 76.0651 50.9431 76.9446 48.8969C79.111 43.8609 79.851 39.3407 80.1352 36.4168C79.4702 36.6746 78.194 37.0641 76.5692 36.9269Z" fill="#8100FF"/>
<path d="M45.9398 38.2384C42.1486 37.8654 38.3199 40.0542 36.2286 43.801C35.376 45.2547 34.5502 47.0924 34.0569 49.2868C33.5742 51.4481 33.5957 53.1378 33.6064 53.6041C33.6225 54.2349 33.6064 55.6886 34.1373 57.4221C34.6092 58.9691 35.4028 60.9989 36.7434 63.1712C38.0411 65.2723 39.446 66.8357 40.5882 67.9329C40.6525 67.9932 40.7437 67.9932 40.8027 67.9329C41.2048 67.5379 41.8161 67.0387 42.6419 66.6273C43.5321 66.1884 44.3525 66.0129 44.9477 65.947C45.0657 65.9306 45.1301 65.7989 45.0604 65.6947C44.0898 64.2574 43.0656 62.5349 42.1272 60.5161C41.5373 59.2544 41.0654 58.053 40.6793 56.9284C41.9341 57.5977 43.3551 58.0036 44.8727 58.053C48.6156 58.1792 52.0153 56.0726 53.7741 52.6879C57.1256 46.2586 52.1762 38.8473 45.9398 38.2329V38.2384ZM47.4841 48.7436C47.822 51.2177 45.5859 53.1707 43.2532 52.4411C42.0735 52.0735 41.1834 51.0038 41.0172 49.7585C40.6793 47.2844 42.9154 45.3315 45.248 46.0611C46.4277 46.4287 47.3179 47.4984 47.4895 48.7436H47.4841Z" fill="#FBFBFB"/>
<path d="M45.9398 38.2384C42.1486 37.8654 38.3199 40.0542 36.2286 43.801C35.376 45.2547 34.5502 47.0924 34.0569 49.2868C33.5742 51.4481 33.5957 53.1378 33.6064 53.6041C33.6225 54.2349 33.6064 55.6886 34.1373 57.4221C34.6092 58.9691 35.4028 60.9989 36.7434 63.1712C38.0411 65.2723 39.446 66.8357 40.5882 67.9329C40.6525 67.9932 40.7437 67.9932 40.8027 67.9329C41.2048 67.5379 41.8161 67.0387 42.6419 66.6273C43.5321 66.1884 44.3525 66.0129 44.9477 65.947C45.0657 65.9306 45.1301 65.7989 45.0604 65.6947C44.0898 64.2574 43.0656 62.5349 42.1272 60.5161C41.5373 59.2544 41.0654 58.053 40.6793 56.9284C41.9341 57.5977 43.3551 58.0036 44.8727 58.053C48.6156 58.1792 52.0153 56.0726 53.7741 52.6879C57.1256 46.2586 52.1762 38.8473 45.9398 38.2329V38.2384ZM47.4841 48.7436C47.822 51.2177 45.5859 53.1707 43.2532 52.4411C42.0735 52.0735 41.1834 51.0038 41.0172 49.7585C40.6793 47.2844 42.9154 45.3315 45.248 46.0611C46.4277 46.4287 47.3179 47.4984 47.4895 48.7436H47.4841Z" fill="#8100FF"/>
<path d="M34.062 27.036C33.5526 26.0321 30.8285 20.6231 25.4554 19.312C17.4924 17.3755 9.00382 25.7468 6.36019 33.2514C6.21004 33.6738 6.09207 34.0578 6.00627 34.3814C5.9741 34.4966 6.07062 34.6009 6.18323 34.5844C6.96613 34.4747 8.15657 34.4198 9.54005 34.7654C11.0898 35.1494 12.2159 35.8736 12.8808 36.3892C12.9773 36.4605 13.1114 36.4112 13.1382 36.296C13.3151 35.4347 13.6369 34.3759 14.2267 33.2788C15.9051 30.1464 20.0341 26.1802 23.466 27.5187C26.8926 28.8518 28.3082 33.5915 26.6352 38.1008C26.3617 38.8304 26.0239 39.5051 25.6378 40.125C21.5624 36.6196 15.2241 36.7403 11.4598 40.8875C7.58816 45.1445 8.07077 51.8426 11.9853 55.6662C16.5379 60.1152 23.8468 57.4271 27.1285 54.794C29.4397 52.9398 31.043 50.0652 31.9063 48.5237C32.5498 47.3717 33.4989 45.4846 34.2121 43.1696C35.1774 40.0373 37.2419 33.3282 34.0727 27.0415L34.062 27.036ZM19.2191 51.0691C16.6505 51.4367 14.6289 49.012 15.385 46.4775C15.7657 45.1994 16.8757 44.2339 18.168 44.0473C20.7366 43.6798 22.7582 46.1045 22.0021 48.6389C21.6214 49.9171 20.5114 50.8826 19.2191 51.0691Z" fill="#FBFBFB"/>
<path d="M34.062 27.036C33.5526 26.0321 30.8285 20.6231 25.4554 19.312C17.4924 17.3755 9.00382 25.7468 6.36019 33.2514C6.21004 33.6738 6.09207 34.0578 6.00627 34.3814C5.9741 34.4966 6.07062 34.6009 6.18323 34.5844C6.96613 34.4747 8.15657 34.4198 9.54005 34.7654C11.0898 35.1494 12.2159 35.8736 12.8808 36.3892C12.9773 36.4605 13.1114 36.4112 13.1382 36.296C13.3151 35.4347 13.6369 34.3759 14.2267 33.2788C15.9051 30.1464 20.0341 26.1802 23.466 27.5187C26.8926 28.8518 28.3082 33.5915 26.6352 38.1008C26.3617 38.8304 26.0239 39.5051 25.6378 40.125C21.5624 36.6196 15.2241 36.7403 11.4598 40.8875C7.58816 45.1445 8.07077 51.8426 11.9853 55.6662C16.5379 60.1152 23.8468 57.4271 27.1285 54.794C29.4397 52.9398 31.043 50.0652 31.9063 48.5237C32.5498 47.3717 33.4989 45.4846 34.2121 43.1696C35.1774 40.0373 37.2419 33.3282 34.0727 27.0415L34.062 27.036ZM19.2191 51.0691C16.6505 51.4367 14.6289 49.012 15.385 46.4775C15.7657 45.1994 16.8757 44.2339 18.168 44.0473C20.7366 43.6798 22.7582 46.1045 22.0021 48.6389C21.6214 49.9171 20.5114 50.8826 19.2191 51.0691Z" fill="#8100FF"/>
<path d="M95.5413 6.02564H95.5091C94.635 5.86656 93.8039 6.4645 93.6537 7.3532L90.5543 25.5934C90.5543 25.5934 90.5436 25.6099 90.5382 25.6099L90.1575 25.6373C89.9108 25.6537 89.691 25.4892 89.632 25.2423L89.3263 24.019C89.203 23.5198 89.2137 22.9876 89.4068 22.5104C89.9055 21.2816 89.8947 19.4384 89.2781 17.5458C88.3129 14.5889 86.2215 12.636 84.6075 13.1901C82.9934 13.7441 82.4679 16.5858 83.4331 19.5426C84.141 21.7149 85.4601 23.3442 86.7524 23.8325C86.9079 23.8928 87.0313 24.0135 87.0688 24.1781L87.3208 25.1984C87.4013 25.5166 87.176 25.8293 86.8597 25.8512L86.3556 25.8841C85.8194 25.9171 85.2885 25.7525 84.8595 25.4233L73.352 16.4596C72.6495 15.911 71.6414 16.0482 71.1051 16.7723L71.0837 16.7997C70.5475 17.5183 70.6815 18.5497 71.3893 19.0982L80.2318 25.9884C83.6959 28.6874 85.8408 32.7907 86.1197 37.2342L86.6076 45.035C86.731 47.0208 86.2966 48.9957 85.3475 50.7347L72.8586 73.6652C72.3975 74.5155 72.5262 75.6236 73.2608 76.2325C74.2153 77.0225 75.5827 76.7208 76.1511 75.673L90.1253 50.016C90.2272 49.824 90.4203 49.7033 90.6347 49.6869L90.8385 49.6759C90.9726 49.665 91.0852 49.7692 91.0905 49.9063L92.163 77.1816C92.2006 78.1525 92.8762 79.0303 93.8146 79.1564C95.0319 79.321 96.0453 78.3336 95.9971 77.1377L94.9085 49.4126H94.9461L93.8253 31.4467C93.6537 28.6709 93.7985 25.8786 94.265 23.1358L96.8497 7.94018C96.9998 7.046 96.4153 6.1957 95.5466 6.0421L95.5413 6.02564Z" fill="#FBFBFB"/>
<path d="M95.5413 6.02564H95.5091C94.635 5.86656 93.8039 6.4645 93.6537 7.3532L90.5543 25.5934C90.5543 25.5934 90.5436 25.6099 90.5382 25.6099L90.1575 25.6373C89.9108 25.6537 89.691 25.4892 89.632 25.2423L89.3263 24.019C89.203 23.5198 89.2137 22.9876 89.4068 22.5104C89.9055 21.2816 89.8947 19.4384 89.2781 17.5458C88.3129 14.5889 86.2215 12.636 84.6075 13.1901C82.9934 13.7441 82.4679 16.5858 83.4331 19.5426C84.141 21.7149 85.4601 23.3442 86.7524 23.8325C86.9079 23.8928 87.0313 24.0135 87.0688 24.1781L87.3208 25.1984C87.4013 25.5166 87.176 25.8293 86.8597 25.8512L86.3556 25.8841C85.8194 25.9171 85.2885 25.7525 84.8595 25.4233L73.352 16.4596C72.6495 15.911 71.6414 16.0482 71.1051 16.7723L71.0837 16.7997C70.5475 17.5183 70.6815 18.5497 71.3893 19.0982L80.2318 25.9884C83.6959 28.6874 85.8408 32.7907 86.1197 37.2342L86.6076 45.035C86.731 47.0208 86.2966 48.9957 85.3475 50.7347L72.8586 73.6652C72.3975 74.5155 72.5262 75.6236 73.2608 76.2325C74.2153 77.0225 75.5827 76.7208 76.1511 75.673L90.1253 50.016C90.2272 49.824 90.4203 49.7033 90.6347 49.6869L90.8385 49.6759C90.9726 49.665 91.0852 49.7692 91.0905 49.9063L92.163 77.1816C92.2006 78.1525 92.8762 79.0303 93.8146 79.1564C95.0319 79.321 96.0453 78.3336 95.9971 77.1377L94.9085 49.4126H94.9461L93.8253 31.4467C93.6537 28.6709 93.7985 25.8786 94.265 23.1358L96.8497 7.94018C96.9998 7.046 96.4153 6.1957 95.5466 6.0421L95.5413 6.02564Z" fill="#8100FF"/>
<path d="M102.046 6.02564H102.078C102.952 5.86656 103.783 6.4645 103.933 7.3532L107.033 25.5934C107.033 25.5934 107.043 25.6099 107.049 25.6099L107.429 25.6373C107.676 25.6537 107.896 25.4892 107.955 25.2423L108.26 24.019C108.384 23.5198 108.373 22.9876 108.18 22.5104C107.681 21.2816 107.692 19.4384 108.309 17.5458C109.274 14.5889 111.365 12.636 112.979 13.1901C114.593 13.7441 115.119 16.5858 114.154 19.5426C113.446 21.7149 112.127 23.3442 110.834 23.8325C110.679 23.8928 110.556 24.0135 110.518 24.1781L110.266 25.1984C110.186 25.5166 110.411 25.8293 110.727 25.8512L111.231 25.8841C111.767 25.9171 112.298 25.7525 112.727 25.4233L124.235 16.4596C124.937 15.911 125.945 16.0482 126.482 16.7723L126.503 16.7997C127.039 17.5183 126.905 18.5497 126.197 19.0982L117.355 25.9884C113.891 28.6874 111.746 32.7907 111.467 37.2342L110.979 45.035C110.856 47.0208 111.29 48.9957 112.239 50.7347L124.728 73.6652C125.189 74.5155 125.061 75.6236 124.326 76.2325C123.372 77.0225 122.004 76.7208 121.436 75.673L107.462 50.016C107.36 49.824 107.167 49.7033 106.952 49.6869L106.748 49.6759C106.614 49.665 106.502 49.7692 106.496 49.9063L105.424 77.1816C105.386 78.1525 104.711 79.0303 103.772 79.1564C102.555 79.321 101.541 78.3336 101.59 77.1377L102.678 49.4126H102.641L103.762 31.4467C103.933 28.6709 103.788 25.8786 103.322 23.1358L100.737 7.94018C100.587 7.046 101.171 6.1957 102.04 6.0421L102.046 6.02564Z" fill="#FBFBFB"/>
<path d="M102.046 6.02564H102.078C102.952 5.86656 103.783 6.4645 103.933 7.3532L107.033 25.5934C107.033 25.5934 107.043 25.6099 107.049 25.6099L107.429 25.6373C107.676 25.6537 107.896 25.4892 107.955 25.2423L108.26 24.019C108.384 23.5198 108.373 22.9876 108.18 22.5104C107.681 21.2816 107.692 19.4384 108.309 17.5458C109.274 14.5889 111.365 12.636 112.979 13.1901C114.593 13.7441 115.119 16.5858 114.154 19.5426C113.446 21.7149 112.127 23.3442 110.834 23.8325C110.679 23.8928 110.556 24.0135 110.518 24.1781L110.266 25.1984C110.186 25.5166 110.411 25.8293 110.727 25.8512L111.231 25.8841C111.767 25.9171 112.298 25.7525 112.727 25.4233L124.235 16.4596C124.937 15.911 125.945 16.0482 126.482 16.7723L126.503 16.7997C127.039 17.5183 126.905 18.5497 126.197 19.0982L117.355 25.9884C113.891 28.6874 111.746 32.7907 111.467 37.2342L110.979 45.035C110.856 47.0208 111.29 48.9957 112.239 50.7347L124.728 73.6652C125.189 74.5155 125.061 75.6236 124.326 76.2325C123.372 77.0225 122.004 76.7208 121.436 75.673L107.462 50.016C107.36 49.824 107.167 49.7033 106.952 49.6869L106.748 49.6759C106.614 49.665 106.502 49.7692 106.496 49.9063L105.424 77.1816C105.386 78.1525 104.711 79.0303 103.772 79.1564C102.555 79.321 101.541 78.3336 101.59 77.1377L102.678 49.4126H102.641L103.762 31.4467C103.933 28.6709 103.788 25.8786 103.322 23.1358L100.737 7.94018C100.587 7.046 101.171 6.1957 102.04 6.0421L102.046 6.02564Z" fill="#8100FF"/>
</svg>
