<?xml version="1.0" encoding="UTF-8"?>
<svg xmlns="http://www.w3.org/2000/svg" version="1.1" viewBox="0 0 157 74">
  <defs>
    <style>
      .cls-1 {
        fill: #fbfbfb;
      }

      .cls-2 {
        fill: #8100ff;
      }
    </style>
  </defs>
  <!-- Generator: Adobe Illustrator 28.7.1, SVG Export Plug-In . SVG Version: 1.2.0 Build 142)  -->
  <g>
    <g id="_x31_">
      <path class="cls-1" d="M40.4,30.1c.9.1,2.3.4,3.8,1.1,1.6.8,2.7,1.7,3.3,2.4,0-.8,0-1.4,0-1.4,0-.6.1-1.2.2-1.6h0c.2-1.5,1.5-2.6,2.9-2.6h.5c.4.1.8.2,1.2.2s.8,0,1.1-.1c1-.2,1.7-.6,2.2-.9l.7-.5h.9c1.6,0,3,1.3,3,2.9l-.2,5.7c0,.6.2,1.1.4,1.6,1-2,1.7-4.3,2.2-6.8l.7-4,3.5,2.1c.6.4,1.3.6,2,.7.1,0,.3,0,.4,0,.7,0,1.3-.2,1.7-.3l2.6-1c.6,1.3,1,2.7,1.2,4.1-.4,4.3-1.5,8.4-3.2,12.3-1.4,3.2-3.5,7.7-6.3,10.4h-.1c-1,1.2-2.1,2.3-3.2,3.2-2.3,2-4.9,3.7-7.6,5l-.6.3h-.7c-1.6,0-2.9-1.2-2.9-2.8,0-.6-.2-1.5-.7-2.6-.4-.8-1-1.6-1.7-2.2-.8-.7-1.2-1.8-1-2.9.2-1.1,1.1-2,2.2-2.2.8-.2,2-.7,3.2-1.7-.6-.7-1.1-1.5-1.6-2.3-.2.5-.4,1-.6,1.4-2,3.9-5.8,6.3-10,6.5.5,1,1.1,1.9,1.7,2.8.6.9.7,1.9.3,2.9-.4.9-1.3,1.6-2.3,1.7-.4,0-.8.1-1.3.4-.5.2-.8.5-1,.7-.5.5-1.3.9-2.1.9s-1.5-.3-2-.8c-1.6-1.5-2.9-3.2-4.1-5-1.2-1.9-2.1-3.9-2.7-6-.3-1-.4-1.9-.5-2.6-.5.5-1,1-1.6,1.5-2.1,1.7-6,3.7-10.2,3.7s-5.7-1-7.7-3c-4.9-4.8-5.2-12.7-.6-17.7.2-.3.5-.5.7-.7-.3-.2-.7-.3-1.1-.4-.4-.1-.9-.2-1.3-.2s-.5,0-.7,0h-.2s-.2,0-.2,0c-.9,0-1.8-.4-2.4-1.2-.6-.7-.7-1.7-.5-2.6,0-.3.2-.8.4-1.2,2.6-7.4,10.2-15.2,18.3-15.2s2,.1,2.9.3c3.8.9,7.1,3.7,9.4,7.8h0s.4.9.4.9c1.9,3.7,2.1,7.4,1.7,10.6,1.3-.5,2.6-1.3,4-1.6,1-.2,2-.3,3.1-.1Z"/>
      <path class="cls-1" d="M156.7,50.5c-.4.8-1.2,1.4-2.1,1.5-.6,0-1.5.3-2.4.8-.7.4-1.3.9-1.8,1.6-.5.7-1.4,1.1-2.3,1.1s-1.3-.2-1.8-.6c-.7-.6-1.3-1.2-1.7-1.9h0c-.9,1-1.2,1.4-1.8,1.7-.7.4-1.5.6-2.4.6s-1.6-.2-2-.3c-4.7-1.4-7.7-3.9-9.4-6.6-.5.7-1,1.4-1.6,2-2.4,2.5-5.7,3.9-9,3.9s-.5,0-.7,0c-4.9-.3-9.3-3.8-11.1-8.8-.8-2-1.3-4.3-1.5-6.5,0-1.2-.1-3,.2-5v-.2c.2-.8.5-2.4,1.3-4.2,1-2.1,2.3-4,3.8-5.8,1.5-1.7,3.2-3.3,5-4.5l.8-.5h.9c.9,0,1.8.4,2.4,1.2.3.3.6.7,1,.9.4.3.8.5,1.3.6,1,.3,1.8,1.1,2,2.1.3,1,0,2.1-.7,2.8-.8.9-1.6,1.8-2.4,2.8,3.3.6,6.2,2.6,8,5.2,2.4-3.8,6.5-6.3,11.2-6.3s.7,0,1,0c6,.5,10.1,5.1,11.6,9.5l4.3,10.3c.3.8.3,1.8-.1,2.6Z"/>
      <path class="cls-1" d="M92.9,0c2.1,0,3.9,1.5,4.2,3.6l.9,5.2c1.2-1.4,2.7-2.1,4.3-2.1s1,0,1.4.2c2.5.8,3.7,3.7,3.4,7l4.5-3.5c.7-.6,1.7-.9,2.6-.9,1.4,0,2.6.7,3.4,1.7,1.4,1.9,1.1,4.6-.8,6.1l-8.3,6.4c-2.6,2-4.2,5.1-4.4,8.5l-.5,7.3c0,1.3.2,2.6.8,3.8l11.7,21.4c1.1,2,.7,4.5-1,5.9-.8.7-1.9,1.1-2.9,1.1-1.7,0-3.2-.9-4-2.4l-9-16.6-.7,16.8c0,2.3-1.8,4.2-4,4.5-.2,0-.4,0-.6,0-1.3,0-2.4-.5-3.3-1.4-.5-.5-.9-1.2-1.1-1.9.1-.5.2-1,.2-1.5l-.2-4.9-.2,4.9c0,.5,0,1,.2,1.5-.2.7-.6,1.4-1.1,1.9-.9.9-2,1.4-3.3,1.4s-.4,0-.6,0c-2.2-.3-3.9-2.2-4-4.5l-.7-16.8-9,16.6c-.8,1.5-2.3,2.4-4,2.4s-2.1-.4-2.9-1.1c-1.7-1.4-2.1-3.9-1.1-5.9l11.7-21.4c.6-1.2.9-2.5.8-3.8l-.4-7.3c0-.1,0-.3,0-.4,0,0,0-.2,0-.3l.4-4.5-1.7.6c-.8-1.5-1.9-2.9-3.2-3.9l-8.3-6.4c-1.9-1.4-2.2-4.1-.8-6h0c.8-1.1,2-1.8,3.4-1.8s1.9.3,2.6.9l4.5,3.5c-.3-3.3.9-6.2,3.4-7,.5-.2,1-.2,1.4-.2,1.5,0,3,.8,4.3,2.1l.9-5.2c.3-2.1,2.1-3.6,4.2-3.6"/>
      <path class="cls-1" d="M90.5,0"/>
      <path class="cls-1" d="M88.7.8"/>
      <path class="cls-1" d="M75.3,27l-.4,4.5c0,0,0,.2,0,.3-.1-1.4-.6-2.9-1.2-4.1l1.7-.6Z"/>
      <path class="cls-1" d="M75.3,27l-.4,4.5c0,0,0,.2,0,.3-.1-1.4-.6-2.9-1.2-4.1l1.7-.6Z"/>
      <path class="cls-1" d="M89.7,69.2c0,.5,0,1-.2,1.5-.1-.5-.2-1-.2-1.5l.2-4.9.2,4.9Z"/>
      <path class="cls-1" d="M90.5,5.1l-1,5.6-.9-5.6c-.2-1.3.2-2.6.9-3.5.8.9,1.2,2.2,1,3.5Z"/>
      <path class="cls-1" d="M89.7,69.2c0,.5,0,1-.2,1.5-.1-.5-.2-1-.2-1.5l.2-4.9.2,4.9Z"/>
      <path class="cls-2" d="M149.8,38.5c-1.2-3.7-4.6-7.3-9.2-7.7-5.7-.5-10.7,3.9-11.2,9.8,0,0-.7,8.5,9.6,11.5.5.1,1.4.4,2.3,0,.3-.1.4-.3,1.4-1.5,1-1.1,1.1-1.2,1.4-1.4.8-.5,1.6-.5,1.9-.6,0,0,0,0,0,0,0,.2,0,.4.1.5,0,.2.1,1.2.7,2.1.4.6.8,1,1.1,1.3,0,0,.2,0,.2,0,.5-.6,1.3-1.5,2.6-2.2,1.3-.8,2.6-1.1,3.4-1.2.1,0,.2-.1.1-.2-1.5-3.5-2.9-7-4.4-10.4h0ZM141.3,45.1c-2.7.9-5.1-1.6-4.2-4.2.4-1.1,1.3-1.9,2.4-2.1,2.7-.5,4.8,2.3,3.4,4.9-.3.7-.9,1.2-1.6,1.4h0Z"/>
      <path class="cls-2" d="M128.1,41.3c-.1-4.6-3.5-8.6-8-9.4-1.6-.3-3.2-.1-4.7.4.6-1,1.2-2.1,2-3.3,1.2-1.8,2.5-3.4,3.7-4.6,0,0,0-.2,0-.3-.6-.2-1.4-.5-2.2-1-.8-.5-1.3-1.1-1.6-1.6,0,0-.1,0-.2,0-1.3.9-2.9,2.2-4.5,4.1-1.6,1.9-2.7,3.8-3.4,5.2-.8,1.6-1,3-1.1,3.7,0,.5-.4,2.1-.2,4.3.2,2.2.7,4.2,1.3,5.7,1.5,4,4.9,6.8,8.7,7,5.4.3,10.5-4.4,10.4-10.1h0ZM118.2,43.6c-2.4.3-4.3-1.9-3.6-4.3.4-1.2,1.4-2.1,2.6-2.3,2.4-.3,4.3,1.9,3.6,4.3-.4,1.2-1.4,2.1-2.6,2.3Z"/>
      <path class="cls-2" d="M68.8,31.7c-1.5-.1-2.7-.7-3.3-1.1-1,5.4-2.9,8.9-4.7,11.2-.3-.3-.7-.5-1.1-1-1.1-1.1-2-2.8-2.4-5.4h0c0-2,.1-3.9.2-5.8,0-.1-.1-.2-.2-.1-.7.4-1.7,1-3.2,1.3-1.4.3-2.6.2-3.4,0,0,0-.2,0-.2.1,0,.4-.1.9-.2,1.5,0,0-.2,2.5,0,4.7.2,2.9,2.7,9.8,5.8,11.2-.4.6-.8,1.1-1.3,1.6-1.9,2-4,2.8-5.2,3.1-.1,0-.2.2,0,.3.7.6,1.7,1.6,2.4,3.1.7,1.5.9,2.8,1,3.7,0,.1.1.2.2.1,2.1-1.1,4.6-2.6,7-4.7,1.1-.9,2.1-1.9,3-2.8,0,0,0,0,0,0,2.8-2.6,5-7.8,5.8-9.7,2-4.7,2.7-8.9,3-11.7-.6.2-1.8.6-3.3.5Z"/>
      <path class="cls-2" d="M40.1,32.9c-3.5-.3-7.1,1.7-9.1,5.2-.8,1.4-1.6,3.1-2,5.1-.5,2-.4,3.6-.4,4,0,.6,0,1.9.5,3.6.4,1.4,1.2,3.3,2.4,5.4,1.2,2,2.5,3.4,3.6,4.5,0,0,.1,0,.2,0,.4-.4.9-.8,1.7-1.2.8-.4,1.6-.6,2.2-.6.1,0,.2-.1.1-.2-.9-1.3-1.9-3-2.7-4.8-.6-1.2-1-2.3-1.4-3.4,1.2.6,2.5,1,3.9,1.1,3.5.1,6.7-1.9,8.3-5,3.1-6-1.5-12.9-7.3-13.5h0ZM41.6,42.7c.3,2.3-1.8,4.1-4,3.5-1.1-.3-1.9-1.3-2.1-2.5-.3-2.3,1.8-4.1,4-3.5,1.1.3,1.9,1.3,2.1,2.5h0Z"/>
      <path class="cls-2" d="M29,22.4c-.5-.9-3-6-8-7.2-7.4-1.8-15.4,6-17.8,13-.1.4-.3.8-.3,1.1,0,.1,0,.2.2.2.7-.1,1.8-.2,3.1.2,1.4.4,2.5,1,3.1,1.5,0,0,.2,0,.2,0,.2-.8.5-1.8,1-2.8,1.6-2.9,5.4-6.6,8.6-5.4,3.2,1.2,4.5,5.7,3,9.9-.3.7-.6,1.3-.9,1.9-3.8-3.3-9.7-3.2-13.3.7-3.6,4-3.2,10.2.5,13.8,4.3,4.2,11.1,1.6,14.2-.8,2.2-1.7,3.7-4.4,4.5-5.9.6-1.1,1.5-2.8,2.2-5,.9-2.9,2.8-9.2-.1-15.1h0ZM15.2,44.9c-2.4.3-4.3-1.9-3.6-4.3.4-1.2,1.4-2.1,2.6-2.3,2.4-.3,4.3,1.9,3.6,4.3-.4,1.2-1.4,2.1-2.6,2.3Z"/>
      <path class="cls-2" d="M86.5,2.8h0c-.8-.1-1.6.4-1.7,1.2l-2.9,17s0,0,0,0h-.4c-.2,0-.4-.1-.5-.3l-.3-1.1c-.1-.5-.1-1,0-1.4.5-1.1.5-2.9-.1-4.6-.9-2.8-2.9-4.6-4.4-4.1-1.5.5-2,3.2-1.1,5.9.7,2,1.9,3.6,3.1,4,.1,0,.3.2.3.3l.2,1c0,.3-.1.6-.4.6h-.5c-.5,0-1,0-1.4-.4l-10.8-8.4c-.7-.5-1.6-.4-2.1.3h0c-.5.7-.4,1.7.3,2.2l8.3,6.4c3.2,2.5,5.2,6.4,5.5,10.5l.5,7.3c.1,1.9-.3,3.7-1.2,5.3l-11.7,21.4c-.4.8-.3,1.8.4,2.4.9.7,2.2.5,2.7-.5l13.1-24c0-.2.3-.3.5-.3h.2c.1,0,.2,0,.2.2l1,25.5c0,.9.7,1.7,1.5,1.8,1.1.2,2.1-.8,2-1.9l-1-25.9h0l-1-16.8c-.2-2.6,0-5.2.4-7.8l2.4-14.2c.1-.8-.4-1.6-1.2-1.8h0Z"/>
      <path class="cls-2" d="M92.6,2.8h0c.8-.1,1.6.4,1.7,1.2l2.9,17s0,0,0,0h.4c.2,0,.4-.1.5-.3l.3-1.1c.1-.5.1-1,0-1.4-.5-1.1-.5-2.9.1-4.6.9-2.8,2.9-4.6,4.4-4.1,1.5.5,2,3.2,1.1,5.9-.7,2-1.9,3.6-3.1,4-.1,0-.3.2-.3.3l-.2,1c0,.3.1.6.4.6h.5c.5,0,1,0,1.4-.4l10.8-8.4c.7-.5,1.6-.4,2.1.3h0c.5.7.4,1.7-.3,2.2l-8.3,6.4c-3.2,2.5-5.2,6.4-5.5,10.5l-.5,7.3c-.1,1.9.3,3.7,1.2,5.3l11.7,21.4c.4.8.3,1.8-.4,2.4-.9.7-2.2.5-2.7-.5l-13.1-24c0-.2-.3-.3-.5-.3h-.2c-.1,0-.2,0-.2.2l-1,25.5c0,.9-.7,1.7-1.5,1.8-1.1.2-2.1-.8-2-1.9l1-25.9h0l1-16.8c.2-2.6,0-5.2-.4-7.8l-2.4-14.2c-.1-.8.4-1.6,1.2-1.8h0Z"/>
    </g>
  </g>
</svg>